<svg xmlns="http://www.w3.org/2000/svg" width="53.348" height="56.732" viewBox="0 0 53.348 56.732">
  <g id="Group_845" data-name="Group 845" transform="translate(7093.783 782.628)">
    <path id="Path_733" data-name="Path 733" d="M-7077.653-776.59c0-1.412,0-2.744,0-4.075a1.733,1.733,0,0,1,1.733-1.957,1.749,1.749,0,0,1,1.719,1.978c0,1.33,0,2.66,0,4.023h14.182c0-1.286,0-2.556,0-3.826a4.125,4.125,0,0,1,.038-.809,1.727,1.727,0,0,1,1.828-1.367,1.709,1.709,0,0,1,1.578,1.7c.018,1.411.005,2.822.005,4.332h10.433a5.912,5.912,0,0,1,5.694,5.679q.009,19.728,0,39.456a5.886,5.886,0,0,1-5.576,5.549q-11.4.019-22.8.007-9.571,0-19.143,0a5.84,5.84,0,0,1-5.826-5.82q0-19.525,0-39.049a5.864,5.864,0,0,1,5.84-5.817c3.19-.008,6.381,0,9.571,0Zm-12.68,16.942v.816q0,13.574,0,27.148c0,1.673.625,2.325,2.3,2.327q7.047.01,14.094,0,13.948,0,27.9,0a1.9,1.9,0,0,0,2.152-2.135q0-13.777,0-27.554c0-.2-.019-.405-.028-.6Zm12.679-13.465c-.226-.01-.395-.024-.564-.024q-4.9,0-9.805,0c-1.655,0-2.306.666-2.31,2.339q-.006,3.54,0,7.08c0,.186.019.371.028.554h46.4c.008-.152.021-.265.021-.378,0-2.456.009-4.913,0-7.37-.007-1.536-.71-2.223-2.254-2.225q-4.786-.006-9.573,0h-.846v.636c0,.909.009,1.818-.007,2.727a1.71,1.71,0,0,1-1.718,1.742,1.713,1.713,0,0,1-1.726-1.733c-.012-.6,0-1.2-.006-1.8V-773.1H-7074.2c0,1.123,0,2.2,0,3.284a1.666,1.666,0,0,1-1.009,1.624,1.708,1.708,0,0,1-2.433-1.54C-7077.678-770.843-7077.654-771.96-7077.654-773.113Z" transform="translate(0 0)" fill="#fff"/>
    <g id="Group_844" data-name="Group 844" transform="translate(-7075.302 -755.414)">
      <path id="Path_734" data-name="Path 734" d="M-6928.838-532.693a32.514,32.514,0,0,0-1.473-5.184,36.218,36.218,0,0,0-2.091-4.546q-1.172-2.132-2.392-4.1l2.96-1.894q1.052,1.74,1.894,3.4t1.508,3.3q.667,1.641,1.179,3.3t.919,3.381q.505-1.95,1.129-3.963t1.291-3.83q.667-1.817,1.326-3.3a18.232,18.232,0,0,1,1.234-2.385l2.946,1.894q-.477.772-.975,1.775t-1,2.168q-.5,1.165-1.017,2.469t-1,2.68a47.834,47.834,0,0,0-1.726,5.906,25.01,25.01,0,0,0-.617,4.938h-3.536A30.653,30.653,0,0,0-6928.838-532.693Z" transform="translate(6934.794 548.511)" fill="#e75110"/>
    </g>
  </g>
</svg>
