<svg xmlns="http://www.w3.org/2000/svg" width="59.565" height="56.732" viewBox="0 0 59.565 56.732">
  <g id="Group_846" data-name="Group 846" transform="translate(6369.275 754.847)">
    <path id="Path_735" data-name="Path 735" d="M-6369.275-713.57c.272-1.144.455-2.319.829-3.429a14.119,14.119,0,0,1,14.937-9.381,14.183,14.183,0,0,1,12.46,11.917,14.228,14.228,0,0,1-11.484,16.127,14.2,14.2,0,0,1-16.588-11.825c-.045-.284-.1-.567-.154-.85Zm25.6,1.3a11.445,11.445,0,0,0-11.19-11.424,11.419,11.419,0,0,0-11.628,11.392,11.444,11.444,0,0,0,11.189,11.425A11.423,11.423,0,0,0-6343.672-712.274Zm5.48,2.236,2.435,1v-.686q0-11.254.012-22.509a.757.757,0,0,0-.56-.844c-1.921-.772-3.826-1.585-5.736-2.384-.667-.279-.808-.839-.246-1.293a14.114,14.114,0,0,1,1.378-.713,1.433,1.433,0,0,1,1.474.079c1.533.648,3.065,1.3,4.61,1.916a1.192,1.192,0,0,0,.814.026q9.445-3.9,18.874-7.833c.1-.042.193-.1.4-.216l-5.823-2.531c1.22-.51,2.315-.978,3.42-1.418a.745.745,0,0,1,.485.083c1.976.843,3.945,1.7,5.921,2.542a1.547,1.547,0,0,1,1.021,1.584q-.016,13.145,0,26.29a1.577,1.577,0,0,1-1.069,1.612q-11.457,4.806-22.918,9.6a2.017,2.017,0,0,1-1.331,0c-1.146-.408-2.25-.937-3.382-1.388-.349-.139-.407-.3-.306-.652C-6338.511-708.489-6338.374-709.23-6338.192-710.037Zm15.25-12.4c0,1.366-.01,2.624.011,3.882a1.858,1.858,0,0,0,.233.592,1.908,1.908,0,0,0,.567-.321c.413-.487.783-1.01,1.169-1.519q3.108-4.1,6.216-8.2c.492-.649.434-.888-.281-1.233q-3.344-1.617-6.691-3.23c-.847-.409-1.217-.183-1.226.776-.01,1.046-.033,2.094.012,3.139a.889.889,0,0,1-.653,1.025c-2.335.934-4.645,1.929-6.973,2.88a.643.643,0,0,0-.49.722c.034.677.009,1.356.009,2.034v2.827Zm-21.443-7.857c0-2.133.006-4.266,0-6.4a1.729,1.729,0,0,1,1.154-1.76q9.388-3.961,18.769-7.938l5.046-2.139c-.254-.119-.425-.2-.6-.279-1.458-.628-2.926-1.231-4.367-1.894a1.633,1.633,0,0,0-1.465-.017c-4.437,1.88-8.888,3.728-13.334,5.584q-5.09,2.124-10.182,4.242a1.46,1.46,0,0,0-1.049,1.44c0,2.4.01,4.808-.009,7.213a.549.549,0,0,0,.42.587c1.448.6,2.891,1.213,4.335,1.821l1.285.541Zm16.562-21.878c-1.953-.845-3.908-1.685-5.859-2.535a1.787,1.787,0,0,0-1.509.061q-11.348,4.9-22.707,9.785a1.686,1.686,0,0,0-1.142,1.744c.024,4.574.011,9.149.013,13.723,0,.181.021.361.031.533l2.766-.424v-12.07l3.752,1.553,1.34-2.435-2.876-1.223c.226-.12.323-.181.428-.226q9.433-4.071,18.871-8.127a1.012,1.012,0,0,1,.7.013c.863.342,1.7.739,2.564,1.087a.972.972,0,0,0,.649.048c1.062-.415,2.108-.87,3.245-1.347A2.879,2.879,0,0,0-6327.824-752.172Z" fill="#fff"/>
    <path id="Path_736" data-name="Path 736" d="M-6311.651-465.8q0-1.192,0-2.383c0-.853-.445-1.379-1.154-1.373s-1.133.529-1.133,1.393c0,1.589-.011,3.178.01,4.766a.793.793,0,0,1-.423.785,2.8,2.8,0,0,0-.951,3.683,2.884,2.884,0,0,0,3.593,1.311,1.3,1.3,0,0,1,.849.011c1.442.559,2.863,1.172,4.3,1.734a2.458,2.458,0,0,0,1.118.193,1.661,1.661,0,0,0,1.45-1.516,1.732,1.732,0,0,0-1.107-1.74c-1.481-.615-2.977-1.2-4.45-1.836a2.135,2.135,0,0,1-.632-.6c-.381-.426-.756-.859-1.111-1.306a1.3,1.3,0,0,1-.348-.629c-.04-.831-.016-1.666-.016-2.5Zm-.934,14.007c-5.877-.8-8.655-7.828-4.694-12.081a2.035,2.035,0,0,0,.481-1.15c.069-.919.021-1.848.021-2.786a8.412,8.412,0,0,0-4.473,9.194,8.517,8.517,0,0,0,9.121,6.886Z" transform="translate(-42.286 -252.038)" fill="#e75110"/>
  </g>
</svg>
