<svg xmlns="http://www.w3.org/2000/svg" width="44.501" height="44.52" viewBox="0 0 44.501 44.52">
  <path id="Path_494" data-name="Path 494" d="M843.355,6215.782c-1.011-.112-2.026-.194-3.032-.34a22.22,22.22,0,1,1,24.5-29.128,21.553,21.553,0,0,1,1.167,6.036c.01.235.06.47.091.705v1.226c-.11.88-.191,1.764-.335,2.638a22.113,22.113,0,0,1-7.557,13.489,33.343,33.343,0,0,1-2.73,2.009c-.54.379-1.03.311-1.318-.118-.3-.447-.157-.933.426-1.3a20.437,20.437,0,0,0,7.368-7.8,19.523,19.523,0,0,0,2.262-11.938c-1.129-8.637-5.877-14.588-14.1-17.286a20.529,20.529,0,1,0,.283,38.992c.141-.046.276-.106.417-.152.622-.2,1.07-.04,1.247.452s-.055.944-.68,1.13a34.294,34.294,0,0,1-3.375.905c-1.233.235-2.495.322-3.744.473Zm3.427-30.917a1.965,1.965,0,0,0-2.065,2.126c-.009.649,0,1.3,0,1.949,0,.91.285,1.187,1.208,1.19.793,0,1.586,0,2.419,0l-.2,2.363a.577.577,0,0,1-.144.06c-.687.008-1.373.012-2.06.017-.966.006-1.221.257-1.221,1.219q0,5.041,0,10.082c0,.216,0,.433,0,.7-.439,0-.807-.016-1.173,0a.849.849,0,1,0,.016,1.691c.407.021.817.006,1.225.006,1.256,0,1.624-.368,1.624-1.627q0-4.846,0-9.691v-.7c.744,0,1.41.012,2.076,0a1.214,1.214,0,0,0,1.314-1.22c.09-1.054.178-2.107.243-3.163.06-.968-.36-1.418-1.324-1.442-.631-.016-1.263.014-1.893-.018-.142-.008-.383-.182-.393-.3-.044-.493-.019-.991-.019-1.448.11-.056.143-.086.176-.087.724-.009,1.447-.008,2.171-.022a1.225,1.225,0,0,0,1.377-1.374q.012-1.531,0-3.064a1.218,1.218,0,0,0-1.356-1.392c-1.262-.015-2.526-.038-3.787,0a5.062,5.062,0,0,0-4.408,2.573.837.837,0,1,0,1.406.9c.044-.06.08-.125.12-.187a3.257,3.257,0,0,1,2.83-1.586c1.039-.011,2.079-.007,3.119,0a2.088,2.088,0,0,1,.361.063v2.361C847.851,6184.861,847.316,6184.844,846.782,6184.865Zm-6.88,10.054q0,4.985,0,9.97c0,.69.314,1.084.842,1.074.513-.009.82-.391.821-1.044q0-5.654,0-11.307c0-.748-.285-1.027-1.048-1.041-.439-.008-.878,0-1.335,0v-2.438c.5,0,.964.013,1.425,0a.866.866,0,0,0,.957-.973c.009-.91.006-1.82,0-2.729,0-.632-.345-1.023-.861-1-.5.018-.8.384-.8,1-.005.646,0,1.291,0,2.011-.439,0-.824-.019-1.207,0a1.171,1.171,0,0,0-1.227,1.288q-.021,1.615,0,3.23a1.194,1.194,0,0,0,1.28,1.3c.366.014.732,0,1.154,0Z" transform="translate(-821.582 -6171.262)" fill="#7c90a7"/>
</svg>
