<svg xmlns="http://www.w3.org/2000/svg" width="17.602" height="31.019" viewBox="0 0 17.602 31.019">
  <path id="Path_685" data-name="Path 685" d="M4949.62-2322.261a3.551,3.551,0,0,1-1.065,1.561q-5.682,5.673-11.35,11.359c-.082.082-.161.168-.33.345a1.79,1.79,0,0,1,.336.21q5.735,5.733,11.464,11.472a2.435,2.435,0,0,1,.758,1.237,2.027,2.027,0,0,1-.866,2.121,2.006,2.006,0,0,1-2.313-.065,3.272,3.272,0,0,1-.362-.316q-6.571-6.577-13.141-13.156a2.023,2.023,0,0,1-.454-2.563,4.244,4.244,0,0,1,.658-.782q6.509-6.526,13.022-13.048a3.037,3.037,0,0,1,1.2-.751h.834a9.043,9.043,0,0,1,.925.52,2.2,2.2,0,0,1,.68,1.152Z" transform="translate(-4932.018 2324.64)" fill="#f0f0f0"/>
</svg>
