<svg xmlns="http://www.w3.org/2000/svg" width="44.5" height="44.52" viewBox="0 0 44.5 44.52">
  <path id="Path_496" data-name="Path 496" d="M1743.546,6215.551c-1.011-.112-2.026-.193-3.032-.34a22.22,22.22,0,1,1,24.5-29.129,21.56,21.56,0,0,1,1.167,6.036c.01.236.06.471.091.706v1.225c-.11.879-.191,1.764-.335,2.638a22.112,22.112,0,0,1-7.557,13.488,33.379,33.379,0,0,1-2.73,2.01c-.54.378-1.03.31-1.318-.119-.3-.448-.157-.933.426-1.3a20.431,20.431,0,0,0,7.368-7.8,19.523,19.523,0,0,0,2.262-11.938c-1.129-8.636-5.877-14.588-14.1-17.287a20.529,20.529,0,1,0,.283,38.993c.141-.046.276-.107.417-.153.622-.2,1.07-.039,1.247.452s-.055.945-.68,1.131a34.428,34.428,0,0,1-3.375.9c-1.233.235-2.495.322-3.744.473Zm-12.442-16.736a8.006,8.006,0,0,0,7.417,7.379q5.48.163,10.968,0a7.95,7.95,0,0,0,7.429-7.417q.163-5.481,0-10.97a7.968,7.968,0,0,0-7.421-7.428c-3.375-.117-6.756-.056-10.135-.07a1.427,1.427,0,0,0-.331.042.822.822,0,0,0-.687.771.8.8,0,0,0,.576.907,2.259,2.259,0,0,0,.711.085c3.138.007,6.276-.025,9.413.02a6.21,6.21,0,0,1,6.121,6.115q.066,5.069,0,10.14a6.208,6.208,0,0,1-6.068,6.052q-5.1.067-10.192,0a6.211,6.211,0,0,1-6.037-6.025c-.047-3.212,0-6.425-.025-9.638a6.332,6.332,0,0,1,3.453-5.971.9.9,0,1,0-.833-1.577,7.813,7.813,0,0,0-4.346,6.505c-.137,1.828-.025,3.674-.025,5.512C1731.09,6195.1,1731.02,6196.962,1731.1,6198.815Zm19.8-5.292a6.837,6.837,0,1,0-13.243,2.154c.232.606.693.867,1.2.677a.915.915,0,0,0,.488-1.243c-.034-.106-.075-.21-.108-.316a5.057,5.057,0,1,1,1.905,2.61q-.947-.658-1.464.04c-.351.476-.2.992.452,1.436a7.232,7.232,0,0,0,4.265,1.247A6.829,6.829,0,0,0,1750.9,6193.523Zm-.56-8.464a1.424,1.424,0,1,0,1.439,1.409A1.453,1.453,0,0,0,1750.344,6185.06Z" transform="translate(-1721.773 -6171.031)" fill="#7c90a7"/>
</svg>
