<svg xmlns="http://www.w3.org/2000/svg" xmlns:xlink="http://www.w3.org/1999/xlink" width="181.71" height="176.247" viewBox="0 0 181.71 176.247">
  <defs>
    <linearGradient id="linear-gradient" x1="0.828" y1="0.249" x2="-0.211" y2="1.591" gradientUnits="objectBoundingBox">
      <stop offset="0.004" stop-color="#e38ddd"/>
      <stop offset="1" stop-color="#9571f6"/>
    </linearGradient>
    <linearGradient id="linear-gradient-2" x1="1.297" y1="-0.163" x2="0.773" y2="0.331" gradientUnits="objectBoundingBox">
      <stop offset="0" stop-color="#aa80f9"/>
      <stop offset="0.996" stop-color="#6165d7"/>
    </linearGradient>
    <linearGradient id="linear-gradient-3" x1="1.185" y1="-0.125" x2="0.086" y2="0.912" xlink:href="#linear-gradient"/>
    <clipPath id="clip-path">
      <path id="Path_702" data-name="Path 702" d="M2163.949,1491.73c-3.33-5.679-.1-15.136,3.857-20.672,4.618-6.464,8.37-4.99,11.571-10.3,5.959-9.88-4.6-19.042.615-29.482,4.266-8.535,12.944-5.651,17.239-15.317,3.1-6.975.07-11.83,4.768-17.012.4-.443,4.8-5.159,10.146-4.3,5.394.862,8.594,6.894,9.641,11.059,1.935,7.7-3.2,10.165-4.254,20.133-1.436,13.571,7.231,17.032,4.109,26.807-2.579,8.071-9.083,7.573-11.765,16.579-2.49,8.363,2.214,11.832,0,17.3C2204.783,1499.095,2170.741,1503.313,2163.949,1491.73Z" transform="translate(-2162.565 -1394.542)" fill="url(#linear-gradient)"/>
    </clipPath>
    <clipPath id="clip-path-2">
      <path id="Path_711" data-name="Path 711" d="M2114.094,726.235c-6.852-2.917-10.4-11.419-10.629-18.164-.35-10.411,7.37-12.092,8.3-23.281.987-11.9-7.381-14.353-5.967-25.635,1.3-10.333,8.49-9.67,11.651-21.847,3.178-12.245-2.853-17.288,2.227-27.227.969-1.895,4.951-9.685,11.929-10.2,5.838-.429,11.114,4.433,13.328,9.074,2.5,5.249.042,8.015.283,17.3.33,12.682,5.062,12.817,4.2,21.431-1.148,11.512-9.705,13.911-8.67,23.127.7,6.2,5.03,6.21,7.559,13.471,3.614,10.376-.82,23.031-7.911,31.01C2139.46,716.344,2125.881,731.252,2114.094,726.235Z" transform="translate(-2103.453 -599.857)" fill="url(#linear-gradient-2)"/>
    </clipPath>
    <linearGradient id="linear-gradient-7" x1="7.042" y1="-0.163" x2="6.519" y2="0.331" xlink:href="#linear-gradient-2"/>
    <clipPath id="clip-path-3">
      <path id="Path_720" data-name="Path 720" d="M758.091,974.921c6.853-2.916,10.4-11.419,10.629-18.164.35-10.411-7.369-12.092-8.3-23.281-.987-11.9,7.381-14.353,5.967-25.635-1.3-10.333-8.49-9.67-11.651-21.847-3.178-12.245,2.853-17.288-2.227-27.227-.969-1.895-4.951-9.685-11.929-10.2-5.838-.429-11.114,4.433-13.328,9.074-2.5,5.249-.042,8.015-.284,17.3-.33,12.682-5.062,12.817-4.2,21.431,1.148,11.512,9.705,13.911,8.671,23.128-.7,6.2-5.03,6.21-7.559,13.471-3.614,10.376.82,23.031,7.911,31.01C732.725,965.031,746.3,979.938,758.091,974.921Z" transform="translate(-722.595 -848.543)" fill="url(#linear-gradient-3)"/>
    </clipPath>
    <linearGradient id="linear-gradient-9" x1="0.414" y1="1.865" x2="0.792" y2="-3.746" gradientUnits="objectBoundingBox">
      <stop offset="0.004" stop-color="#f36f56"/>
      <stop offset="1" stop-color="#ffc444"/>
    </linearGradient>
    <linearGradient id="linear-gradient-10" x1="0.226" y1="4.617" x2="0.607" y2="-0.992" xlink:href="#linear-gradient-9"/>
    <linearGradient id="linear-gradient-11" x1="0.019" y1="0.487" x2="1.025" y2="0.487" gradientUnits="objectBoundingBox">
      <stop offset="0" stop-color="#ff9085"/>
      <stop offset="1" stop-color="#fb6fbb"/>
    </linearGradient>
    <linearGradient id="linear-gradient-12" x1="-0.109" y1="0.34" x2="0.094" y2="0.428" gradientUnits="objectBoundingBox">
      <stop offset="0" stop-color="#ab316d"/>
      <stop offset="1" stop-color="#792d3d"/>
    </linearGradient>
    <linearGradient id="linear-gradient-13" x1="-0.248" y1="0.127" x2="0.49" y2="0.614" xlink:href="#linear-gradient-11"/>
    <linearGradient id="linear-gradient-14" x1="-0.553" y1="0.1" x2="0.458" y2="0.587" xlink:href="#linear-gradient-11"/>
    <linearGradient id="linear-gradient-15" x1="0.214" y1="0.323" x2="0.931" y2="0.953" xlink:href="#linear-gradient-11"/>
    <linearGradient id="linear-gradient-16" x1="0.364" y1="-0.088" x2="0.54" y2="1.094" xlink:href="#linear-gradient-12"/>
    <linearGradient id="linear-gradient-17" x1="0.113" y1="0.311" x2="0.932" y2="0.944" xlink:href="#linear-gradient-11"/>
    <linearGradient id="linear-gradient-18" x1="-0.175" y1="0.249" x2="0.027" y2="0.324" xlink:href="#linear-gradient-12"/>
  </defs>
  <g id="Group_812" data-name="Group 812" transform="translate(-255.746 -560.141)">
    <path id="Path_695" data-name="Path 695" d="M349.428,560.181c-46.517-1.344-86.811,31.675-92.9,75-6.656,47.37,29.978,89.992,75.054,96.819,56.067,8.491,110.449-40.631,105.566-93.921C433.471,597.931,396.714,561.547,349.428,560.181Z" transform="translate(0 0)" fill="#192430"/>
    <g id="Group_797" data-name="Group 797" transform="translate(375.841 612.694)">
      <g id="Group_796" data-name="Group 796" transform="translate(0 0)">
        <path id="Path_696" data-name="Path 696" d="M2163.949,1491.73c-3.33-5.679-.1-15.136,3.857-20.672,4.618-6.464,8.37-4.99,11.571-10.3,5.959-9.88-4.6-19.042.615-29.482,4.266-8.535,12.944-5.651,17.239-15.317,3.1-6.975.07-11.83,4.768-17.012.4-.443,4.8-5.159,10.146-4.3,5.394.862,8.594,6.894,9.641,11.059,1.935,7.7-3.2,10.165-4.254,20.133-1.436,13.571,7.231,17.032,4.109,26.807-2.579,8.071-9.083,7.573-11.765,16.579-2.49,8.363,2.214,11.832,0,17.3C2204.783,1499.095,2170.741,1503.313,2163.949,1491.73Z" transform="translate(-2162.565 -1394.542)" fill="url(#linear-gradient)"/>
        <g id="Group_795" data-name="Group 795" clip-path="url(#clip-path)">
          <g id="Group_794" data-name="Group 794" transform="translate(5.78 -4.548)">
            <path id="Path_697" data-name="Path 697" d="M2254.45,1478.018a.114.114,0,0,1-.012-.227,38.8,38.8,0,0,0,16.038-5.33c4.607-2.771,9.371-5.635,11.485-10.909,1.6-3.987.718-6.925-.4-10.645a34.541,34.541,0,0,1-1.691-15.035c.426-3.938.956-8.839,4.37-13.478a16.977,16.977,0,0,1,5.621-4.881c1.78-1.067,3.185-1.91,4-4.165,1.339-3.681.459-6.848-.559-10.515a39.657,39.657,0,0,1-1.527-7.4c-.695-7.835,3-16.26,10.994-25.041a.114.114,0,0,1,.169.153c-7.945,8.731-11.625,17.1-10.936,24.867a39.461,39.461,0,0,0,1.52,7.354c1.029,3.7,1.917,6.9.553,10.654-.848,2.331-2.355,3.235-4.1,4.282a16.779,16.779,0,0,0-5.555,4.821c-3.377,4.589-3.9,9.456-4.327,13.367a34.347,34.347,0,0,0,1.683,14.946c1.127,3.762,2.017,6.734.389,10.795-2.142,5.345-6.94,8.23-11.579,11.02a39.025,39.025,0,0,1-16.131,5.362Z" transform="translate(-2254.336 -1367.335)" fill="#fff" opacity="0.7" style="mix-blend-mode: soft-light;isolation: isolate"/>
            <path id="Path_698" data-name="Path 698" d="M2628.407,1755.33a.114.114,0,0,1-.1-.068c-4.664-10.558-5.4-18.733-5.19-23.731a24.35,24.35,0,0,1,1.588-8.423.114.114,0,0,1,.207.1,24.182,24.182,0,0,0-1.568,8.352c-.2,4.971.53,13.1,5.172,23.614a.114.114,0,0,1-.058.15A.115.115,0,0,1,2628.407,1755.33Z" transform="translate(-2599.858 -1697.806)" fill="#fff" opacity="0.7" style="mix-blend-mode: soft-light;isolation: isolate"/>
            <path id="Path_699" data-name="Path 699" d="M2657.112,2062.623a.114.114,0,0,1-.029-.224c13.4-3.556,19.993-11.3,23.167-17.173a30.943,30.943,0,0,0,3.714-12,.114.114,0,0,1,.114-.109h0a.114.114,0,0,1,.109.119,31.2,31.2,0,0,1-3.741,12.1c-3.195,5.911-9.832,13.708-23.309,17.284A.094.094,0,0,1,2657.112,2062.623Z" transform="translate(-2631.637 -1988.349)" fill="#fff" opacity="0.7" style="mix-blend-mode: soft-light;isolation: isolate"/>
            <path id="Path_700" data-name="Path 700" d="M2374.49,2433.131a.114.114,0,0,1-.074-.028c-10.027-8.636-13.266-17.546-14.216-23.5a26.477,26.477,0,0,1,.347-10.977.114.114,0,0,1,.218.068,26.246,26.246,0,0,0-.337,10.886c.947,5.913,4.167,14.764,14.138,23.351a.114.114,0,0,1-.074.2Z" transform="translate(-2353.171 -2330.764)" fill="#fff" opacity="0.7" style="mix-blend-mode: soft-light;isolation: isolate"/>
            <path id="Path_701" data-name="Path 701" d="M2851.324,1349.2a.114.114,0,0,1-.044-.219c9.694-4.1,13.819-11.09,15.573-16.231a27.693,27.693,0,0,0,1.5-10.289.114.114,0,0,1,.227-.021,27.947,27.947,0,0,1-1.509,10.375c-1.768,5.188-5.927,12.24-15.7,16.376A.113.113,0,0,1,2851.324,1349.2Z" transform="translate(-2813.618 -1322.334)" fill="#fff" opacity="0.7" style="mix-blend-mode: soft-light;isolation: isolate"/>
          </g>
        </g>
      </g>
    </g>
    <g id="Group_801" data-name="Group 801" transform="translate(372.118 562.643)">
      <path id="Path_703" data-name="Path 703" d="M2114.094,726.235c-6.852-2.917-10.4-11.419-10.629-18.164-.35-10.411,7.37-12.092,8.3-23.281.987-11.9-7.381-14.353-5.967-25.635,1.3-10.333,8.49-9.67,11.651-21.847,3.178-12.245-2.853-17.288,2.227-27.227.969-1.895,4.951-9.685,11.929-10.2,5.838-.429,11.114,4.433,13.328,9.074,2.5,5.249.042,8.015.283,17.3.33,12.682,5.062,12.817,4.2,21.431-1.148,11.512-9.705,13.911-8.67,23.127.7,6.2,5.03,6.21,7.559,13.471,3.614,10.376-.82,23.031-7.911,31.01C2139.46,716.344,2125.881,731.252,2114.094,726.235Z" transform="translate(-2103.453 -599.857)" fill="url(#linear-gradient-2)"/>
      <g id="Group_800" data-name="Group 800">
        <path id="Path_704" data-name="Path 704" d="M2114.094,726.235c-6.852-2.917-10.4-11.419-10.629-18.164-.35-10.411,7.37-12.092,8.3-23.281.987-11.9-7.381-14.353-5.967-25.635,1.3-10.333,8.49-9.67,11.651-21.847,3.178-12.245-2.853-17.288,2.227-27.227.969-1.895,4.951-9.685,11.929-10.2,5.838-.429,11.114,4.433,13.328,9.074,2.5,5.249.042,8.015.283,17.3.33,12.682,5.062,12.817,4.2,21.431-1.148,11.512-9.705,13.911-8.67,23.127.7,6.2,5.03,6.21,7.559,13.471,3.614,10.376-.82,23.031-7.911,31.01C2139.46,716.344,2125.881,731.252,2114.094,726.235Z" transform="translate(-2103.453 -599.857)" fill="url(#linear-gradient-2)"/>
        <g id="Group_799" data-name="Group 799" clip-path="url(#clip-path-2)">
          <g id="Group_798" data-name="Group 798" transform="translate(2.017 -4.625)">
            <path id="Path_705" data-name="Path 705" d="M2335.053,661.087a.114.114,0,0,1-.083-.192c7.764-8.273,11.581-16.616,11.345-24.8a21.645,21.645,0,0,0-2.241-8.857,42.389,42.389,0,0,1-3.323-11.129c-1.722-10.64-.833-20.278,2.642-28.646a32.182,32.182,0,0,1,5.451-8.929c1.795-2.2,3.213-3.931,3.781-7.793.662-4.5-.583-7.5-2.024-10.978a34.868,34.868,0,0,1-3.029-11.093,49.874,49.874,0,0,1,3.382-22.171.114.114,0,1,1,.213.081,49.649,49.649,0,0,0-3.368,22.07,34.668,34.668,0,0,0,3.012,11.026c1.455,3.505,2.711,6.533,2.04,11.1-.577,3.925-2.012,5.681-3.83,7.9a31.989,31.989,0,0,0-5.417,8.872c-3.459,8.328-4.343,17.924-2.628,28.522a42.2,42.2,0,0,0,3.307,11.075,21.833,21.833,0,0,1,2.26,8.94c.238,8.243-3.6,16.64-11.406,24.958A.114.114,0,0,1,2335.053,661.087Z" transform="translate(-2322.376 -526.43)" fill="#fff" opacity="0.7" style="mix-blend-mode: soft-light;isolation: isolate"/>
            <path id="Path_706" data-name="Path 706" d="M2319.248,703.116a.115.115,0,0,1-.049-.011c-8.132-3.864-13.071-11.453-15.782-17.139a53.107,53.107,0,0,1-3.974-11.524.114.114,0,1,1,.224-.042,52.9,52.9,0,0,0,3.959,11.474c2.7,5.651,7.6,13.192,15.672,17.026a.114.114,0,0,1-.049.217Z" transform="translate(-2289.114 -664.992)" fill="#fff" opacity="0.7" style="mix-blend-mode: soft-light;isolation: isolate"/>
            <path id="Path_707" data-name="Path 707" d="M2457.781,1153.261a.114.114,0,0,1,0-.228c10.953-.412,16.851-7.134,19.869-12.7a37.117,37.117,0,0,0,3.971-12.115.114.114,0,0,1,.226.025,37.359,37.359,0,0,1-4,12.2c-3.047,5.618-9,12.4-20.061,12.818Z" transform="translate(-2437.375 -1090.222)" fill="#fff" opacity="0.7" style="mix-blend-mode: soft-light;isolation: isolate"/>
            <path id="Path_708" data-name="Path 708" d="M2191.248,1323.332a.117.117,0,0,1-.045-.009,23.4,23.4,0,0,1-14.121-16.4,28.074,28.074,0,0,1-.506-10.5.114.114,0,1,1,.224.042,27.839,27.839,0,0,0,.506,10.415,23.182,23.182,0,0,0,13.988,16.234.114.114,0,0,1-.045.219Z" transform="translate(-2173.732 -1247.841)" fill="#fff" opacity="0.7" style="mix-blend-mode: soft-light;isolation: isolate"/>
            <path id="Path_709" data-name="Path 709" d="M2510.388,1837.729a.114.114,0,0,1-.021-.226c9.931-1.889,15.164-8.65,17.8-13.99a35.9,35.9,0,0,0,3.39-11.27.118.118,0,0,1,.124-.1.114.114,0,0,1,.1.124,36.144,36.144,0,0,1-3.409,11.343c-2.664,5.389-7.943,12.213-17.97,14.12Z" transform="translate(-2486.669 -1731.164)" fill="#fff" opacity="0.7" style="mix-blend-mode: soft-light;isolation: isolate"/>
            <path id="Path_710" data-name="Path 710" d="M2155.587,2128.01h-.017c-8.949-1.293-13.935-8.111-16.542-13.6a42.9,42.9,0,0,1-3.546-11.707.114.114,0,0,1,.1-.127.116.116,0,0,1,.127.1,42.647,42.647,0,0,0,3.528,11.642c2.583,5.439,7.52,12.191,16.367,13.469a.114.114,0,0,1-.016.227Z" transform="translate(-2135.482 -2003.304)" fill="#fff" opacity="0.7" style="mix-blend-mode: soft-light;isolation: isolate"/>
          </g>
        </g>
      </g>
    </g>
    <g id="Group_805" data-name="Group 805" transform="translate(285.149 578.306)">
      <path id="Path_712" data-name="Path 712" d="M758.091,974.921c6.853-2.916,10.4-11.419,10.629-18.164.35-10.411-7.369-12.092-8.3-23.281-.987-11.9,7.381-14.353,5.967-25.635-1.3-10.333-8.49-9.67-11.651-21.847-3.178-12.245,2.853-17.288-2.227-27.227-.969-1.895-4.951-9.685-11.929-10.2-5.838-.429-11.114,4.433-13.328,9.074-2.5,5.249-.042,8.015-.284,17.3-.33,12.682-5.062,12.817-4.2,21.431,1.148,11.512,9.705,13.911,8.671,23.128-.7,6.2-5.03,6.21-7.559,13.471-3.614,10.376.82,23.031,7.911,31.01C732.725,965.031,746.3,979.938,758.091,974.921Z" transform="translate(-722.595 -848.543)" fill="url(#linear-gradient-7)"/>
      <g id="Group_804" data-name="Group 804" transform="translate(0 0)">
        <path id="Path_713" data-name="Path 713" d="M758.091,974.921c6.853-2.916,10.4-11.419,10.629-18.164.35-10.411-7.369-12.092-8.3-23.281-.987-11.9,7.381-14.353,5.967-25.635-1.3-10.333-8.49-9.67-11.651-21.847-3.178-12.245,2.853-17.288-2.227-27.227-.969-1.895-4.951-9.685-11.929-10.2-5.838-.429-11.114,4.433-13.328,9.074-2.5,5.249-.042,8.015-.284,17.3-.33,12.682-5.062,12.817-4.2,21.431,1.148,11.512,9.705,13.911,8.671,23.128-.7,6.2-5.03,6.21-7.559,13.471-3.614,10.376.82,23.031,7.911,31.01C732.725,965.031,746.3,979.938,758.091,974.921Z" transform="translate(-722.595 -848.543)" fill="url(#linear-gradient-3)"/>
        <g id="Group_803" data-name="Group 803" clip-path="url(#clip-path-3)">
          <g id="Group_802" data-name="Group 802" transform="translate(-1.001 -4.625)">
            <path id="Path_714" data-name="Path 714" d="M954.291,909.774a.113.113,0,0,1-.083-.036c-7.807-8.319-11.645-16.716-11.406-24.958a21.83,21.83,0,0,1,2.259-8.94,42.181,42.181,0,0,0,3.307-11.076c1.716-10.6.832-20.193-2.628-28.522a31.972,31.972,0,0,0-5.417-8.872c-1.817-2.223-3.252-3.979-3.83-7.9-.671-4.566.585-7.593,2.04-11.1a34.683,34.683,0,0,0,3.012-11.026,49.65,49.65,0,0,0-3.369-22.07.114.114,0,0,1,.213-.081,49.877,49.877,0,0,1,3.382,22.171,34.876,34.876,0,0,1-3.029,11.093c-1.442,3.474-2.687,6.475-2.024,10.978.568,3.862,1.986,5.6,3.781,7.793a32.181,32.181,0,0,1,5.451,8.929c3.476,8.368,4.365,18.006,2.642,28.646a42.365,42.365,0,0,1-3.322,11.129,21.641,21.641,0,0,0-2.241,8.857c-.237,8.18,3.58,16.523,11.344,24.8a.114.114,0,0,1-.083.192Z" transform="translate(-921.847 -775.118)" fill="#fff" opacity="0.7" style="mix-blend-mode: soft-light;isolation: isolate"/>
            <path id="Path_715" data-name="Path 715" d="M942.942,951.8a.114.114,0,0,1-.049-.217c8.072-3.835,12.98-11.379,15.675-17.032a52.875,52.875,0,0,0,3.956-11.469.114.114,0,1,1,.224.042,53.128,53.128,0,0,1-3.974,11.524c-2.711,5.686-7.65,13.276-15.783,17.139A.115.115,0,0,1,942.942,951.8Z" transform="translate(-927.956 -913.679)" fill="#fff" opacity="0.7" style="mix-blend-mode: soft-light;isolation: isolate"/>
            <path id="Path_716" data-name="Path 716" d="M741.115,1401.948h0c-11.061-.416-17.014-7.2-20.061-12.818a37.373,37.373,0,0,1-4-12.2.114.114,0,1,1,.226-.025,37.135,37.135,0,0,0,3.974,12.121c3.018,5.563,8.915,12.281,19.865,12.693a.114.114,0,0,1,0,.228Z" transform="translate(-716.401 -1338.909)" fill="#fff" opacity="0.7" style="mix-blend-mode: soft-light;isolation: isolate"/>
            <path id="Path_717" data-name="Path 717" d="M1143.289,1572.02a.114.114,0,0,1-.045-.218,23.183,23.183,0,0,0,13.99-16.242,27.83,27.83,0,0,0,.5-10.406.114.114,0,0,1,.224-.042,28.078,28.078,0,0,1-.506,10.5,23.4,23.4,0,0,1-14.121,16.4A.114.114,0,0,1,1143.289,1572.02Z" transform="translate(-1115.686 -1496.529)" fill="#fff" opacity="0.7" style="mix-blend-mode: soft-light;isolation: isolate"/>
            <path id="Path_718" data-name="Path 718" d="M728.1,2086.417l-.022,0c-10.026-1.906-15.306-8.731-17.969-14.12a36.139,36.139,0,0,1-3.41-11.343.114.114,0,0,1,.1-.124.119.119,0,0,1,.124.1,35.892,35.892,0,0,0,3.39,11.27c2.641,5.34,7.873,12.1,17.8,13.99a.114.114,0,0,1-.021.226Z" transform="translate(-706.703 -1979.851)" fill="#fff" opacity="0.7" style="mix-blend-mode: soft-light;isolation: isolate"/>
            <path id="Path_719" data-name="Path 719" d="M1102.175,2376.7a.114.114,0,0,1-.016-.226c8.847-1.278,13.783-8.03,16.367-13.469a42.652,42.652,0,0,0,3.528-11.642.116.116,0,0,1,.127-.1.114.114,0,0,1,.1.127,42.912,42.912,0,0,1-3.546,11.707c-2.607,5.491-7.594,12.309-16.543,13.6Z" transform="translate(-1077.161 -2251.99)" fill="#fff" opacity="0.7" style="mix-blend-mode: soft-light;isolation: isolate"/>
          </g>
        </g>
      </g>
    </g>
    <g id="Group_809" data-name="Group 809" transform="translate(308.732 562.699)">
      <path id="Path_721" data-name="Path 721" d="M1188.5,641.353l-34.538-39.3c-1.434-1.536-4.362-1.185-6.443-1.29a7.525,7.525,0,0,0-5.583,2.037l-40.351,38.3a14.188,14.188,0,0,0-4.54,10.211V758.827c0,6.824,5.938,11.715,13.063,10.825l71.063-8.862a12.926,12.926,0,0,0,10.9-12.639V650.524A13.427,13.427,0,0,0,1188.5,641.353Zm-41.282,4.878a9.5,9.5,0,0,1-9.57-9.436,9.34,9.34,0,0,1,9.57-9.3,9.508,9.508,0,0,1,9.385,9.435A9.346,9.346,0,0,1,1147.213,646.231Z" transform="translate(-1097.041 -600.754)" fill="url(#linear-gradient-9)"/>
      <path id="Path_722" data-name="Path 722" d="M1254.182,643.729l-35.22-37.879a8.007,8.007,0,0,0-5.444-2.558,7.452,7.452,0,0,0-5.541,2.03l-19.83,18.918-20.1,19.244a14.037,14.037,0,0,0-4.386,10.175V760.771c0,6.8,5.856,11.654,12.924,10.768l51.747-6.477,18.56-2.316c6.032-.755,10.81-6.443,10.81-12.61V652.867A13.386,13.386,0,0,0,1254.182,643.729Zm-40.961-13.8a9.453,9.453,0,0,1,9.316,9.4,9.3,9.3,0,0,1-9.316,9.268,9.449,9.449,0,0,1-9.5-9.4A9.289,9.289,0,0,1,1213.221,629.926Z" transform="translate(-1159.469 -603.123)" fill="url(#linear-gradient-10)"/>
      <g id="Group_808" data-name="Group 808" transform="translate(17.618 65.724)">
        <g id="Group_806" data-name="Group 806" transform="translate(0 0.56)" opacity="0.15" style="mix-blend-mode: multiply;isolation: isolate">
          <path id="Path_723" data-name="Path 723" d="M1409.1,1671.421c-.182,12.019-7.7,18.265-16.069,18.233-9.119-.035-16.428-7.026-16.255-18.506.165-10.915,7.041-18.691,17.258-17.928C1403.946,1653.96,1409.246,1661.611,1409.1,1671.421Zm-21.648-.231c-.1,6.27,1.957,10.827,5.965,10.9,3.858.072,5.781-3.859,5.88-10.437.09-5.947-1.435-10.639-5.648-10.891C1389.549,1660.518,1387.541,1665.2,1387.45,1671.19Zm8.462,38.641,29.042-52.583a2.939,2.939,0,0,1,2.792-1.51h0a2.939,2.939,0,0,1,2.36,4.34l-28.721,52.568a2.938,2.938,0,0,1-2.449,1.527l-.321.014A2.939,2.939,0,0,1,1395.912,1709.831Zm49.693-14.818c-.169,11.132-6.621,17.223-13.781,17.537-7.7.338-13.914-5.8-13.836-16.381.152-10.061,6.014-17.54,14.731-17.306C1441.2,1679.09,1445.742,1685.927,1445.6,1695.012Zm-18.446.731c-.167,5.789,1.579,9.908,5,9.808,3.3-.1,4.948-3.81,5.04-9.894.083-5.5-1.141-9.766-4.742-9.81C1428.882,1685.8,1427.243,1690.21,1427.159,1695.743Z" transform="translate(-1376.772 -1653.168)" fill="url(#linear-gradient-11)"/>
        </g>
        <g id="Group_807" data-name="Group 807" transform="translate(1.403)">
          <path id="Path_724" data-name="Path 724" d="M1431.368,1662.535c-.182,12.019-7.7,18.265-16.068,18.233-9.119-.035-16.428-7.026-16.255-18.506.165-10.915,7.041-18.691,17.258-17.928C1426.216,1645.074,1431.516,1652.725,1431.368,1662.535Zm-21.647-.231c-.095,6.27,1.957,10.827,5.965,10.9,3.858.072,5.781-3.859,5.88-10.437.09-5.947-1.436-10.638-5.648-10.891C1411.819,1651.632,1409.811,1656.311,1409.72,1662.3Zm8.462,38.64,29.042-52.583a2.939,2.939,0,0,1,2.792-1.51h0a2.939,2.939,0,0,1,2.36,4.34l-28.721,52.568a2.938,2.938,0,0,1-2.449,1.527l-.321.014A2.939,2.939,0,0,1,1418.182,1700.944Zm49.693-14.818c-.168,11.132-6.621,17.223-13.781,17.537-7.7.338-13.914-5.8-13.835-16.381.152-10.061,6.014-17.54,14.731-17.306C1463.474,1670.2,1468.012,1677.041,1467.875,1686.126Zm-18.446.731c-.167,5.789,1.579,9.908,5,9.808,3.3-.1,4.948-3.81,5.04-9.894.083-5.5-1.141-9.766-4.742-9.81C1451.152,1676.918,1449.513,1681.324,1449.429,1686.857Z" transform="translate(-1399.042 -1644.282)" fill="#fff"/>
        </g>
      </g>
      <path id="Path_725" data-name="Path 725" d="M1228.3,1076.864l-51.71,6.477c-7.068.885-12.924-3.97-12.924-10.768V965.462a14.034,14.034,0,0,1,4.385-10.174l20.131-19.244c-3.809,12.239-2.76,21.176-.634,27.482,6.727,19.957,26.348,21.015,31.424,41.2,4.1,16.3-6.67,23.72-5.231,41.724C1214.424,1055.041,1217.864,1065.579,1228.3,1076.864Z" transform="translate(-1159.469 -914.926)" fill="#fff" opacity="0.35" style="mix-blend-mode: soft-light;isolation: isolate"/>
    </g>
    <g id="Group_811" data-name="Group 811" transform="translate(382.653 680.33)">
      <path id="Path_726" data-name="Path 726" d="M2452.486,2486.3a.484.484,0,0,1-.481-.438,25.642,25.642,0,0,0-4.08-11.89c-1.956-2.856-4.284-4.56-6.229-4.56h-.007c-7.085.014-8.568,16.282-8.582,16.446a.484.484,0,0,1-.964-.083c.061-.707,1.578-17.315,9.544-17.331h.009c2.3,0,4.859,1.815,7.027,4.98a26.63,26.63,0,0,1,4.245,12.345.484.484,0,0,1-.436.528Z" transform="translate(-2421.974 -2468.44)" fill="url(#linear-gradient-12)"/>
      <path id="Path_727" data-name="Path 727" d="M2271.708,2749.874l9.328,4.722,5.651-17.342-9.312-23.25-2.64.647-4.007,33.391A1.812,1.812,0,0,0,2271.708,2749.874Z" transform="translate(-2270.715 -2698.538)" fill="url(#linear-gradient-13)"/>
      <path id="Path_728" data-name="Path 728" d="M2350.839,2737.254l-9.312-23.25-1.558.382a50.631,50.631,0,0,0,.026,7.519c.625,7.916,2.7,10.119,1.693,15.641-.835,4.592-2.659,5.215-2.5,8.3.174,3.365,2.521,6.182,5.31,8.4l.688.348Z" transform="translate(-2334.867 -2698.538)" opacity="0.52" fill="url(#linear-gradient-14)" style="mix-blend-mode: multiply;isolation: isolate"/>
      <path id="Path_729" data-name="Path 729" d="M2376.458,2714h34.778l11.51,37.157-42.627,3.435Z" transform="translate(-2369.798 -2698.538)" fill="url(#linear-gradient-15)"/>
      <path id="Path_730" data-name="Path 730" d="M2527.454,2492.839a.484.484,0,0,1-.47-.374c-.1-.421-2.384-10.378.838-15.264a5.612,5.612,0,0,1,3.834-2.542c8.329-1.468,13.457,16.421,13.671,17.183a.484.484,0,1,1-.931.261c-.05-.178-5.1-17.811-12.571-16.491a4.618,4.618,0,0,0-3.195,2.121c-3,4.542-.727,14.412-.7,14.511a.484.484,0,0,1-.471.594Z" transform="translate(-2510.021 -2474.188)" fill="url(#linear-gradient-16)"/>
      <g id="Group_810" data-name="Group 810" transform="translate(12.406 15.466)" opacity="0.3" style="mix-blend-mode: multiply;isolation: isolate">
        <path id="Path_731" data-name="Path 731" d="M2496.726,2714h-17.253a4.684,4.684,0,0,0-1.512,2.982c-.271,5.257,11.815,6.984,12.981,14.19.841,5.2-4.333,11.2-8.95,13.867-4.864,2.815-8.159,1.389-11.448,4.515a10.78,10.78,0,0,0-2.849,4.87l40.542-3.267Z" transform="translate(-2467.694 -2714.004)" fill="url(#linear-gradient-17)"/>
      </g>
      <circle id="Ellipse_6" data-name="Ellipse 6" cx="1.352" cy="1.352" r="1.352" transform="translate(15.525 18.724) rotate(-45)" fill="url(#linear-gradient-18)"/>
      <circle id="Ellipse_7" data-name="Ellipse 7" cx="1.352" cy="1.352" r="1.352" transform="translate(33.441 19.604) rotate(-76.717)" fill="url(#linear-gradient-18)"/>
    </g>
  </g>
</svg>
