<svg xmlns="http://www.w3.org/2000/svg" width="58.79" height="60.598" viewBox="0 0 58.79 60.598">
  <g id="Group_849" data-name="Group 849" transform="translate(3940.98 811.138)">
    <path id="Path_737" data-name="Path 737" d="M-3919.888-755.115h-.058a1.257,1.257,0,0,1-.885-.425c-.114-.129-.223-.256-.329-.381-.2-.237-.393-.46-.582-.65-5.382-5.386-10.838-10.84-16.218-16.211l-.023-.024a10.682,10.682,0,0,1-2.909-6.662,13.262,13.262,0,0,1,.968-6.7l.011-.025a10.068,10.068,0,0,1,2.248-3.17c6.019-6,12.084-12.055,18.03-18a12.394,12.394,0,0,1,5.949-3.542l.042-.01a9.4,9.4,0,0,1,7.681,1.641c.554.385,1.052.8,1.578,1.234.243.2.495.41.751.615a1.26,1.26,0,0,1,.472.918,1.257,1.257,0,0,1-.375.962l-.977.959c-.708.693-1.375,1.348-2.042,2.013-6.527,6.517-13.19,13.173-19.8,19.785a2.644,2.644,0,0,0,0,3.734l.011.011.012.012c1.655,1.673,3.352,3.364,4.993,5l2.125,2.119.618.615c.495.491,1.006,1,1.5,1.51a7.879,7.879,0,0,1,1.439,10.007l-.015.028a18.1,18.1,0,0,1-3.358,4.293A1.259,1.259,0,0,1-3919.888-755.115Zm-16.283-19.436c5.377,5.368,10.83,10.819,16.207,16.2.043.042.084.085.125.128a15.568,15.568,0,0,0,1.972-2.748,5.393,5.393,0,0,0-1.024-7.058h0c-.484-.5-.988-1-1.476-1.482l-.623-.62q-1.061-1.059-2.123-2.117c-1.643-1.637-3.341-3.329-5-5.007l-.014-.014a5.163,5.163,0,0,1-.008-7.294c6.613-6.613,13.276-13.27,19.8-19.787.667-.666,1.332-1.316,2.033-2-.378-.311-.744-.6-1.116-.862l-.039-.028a6.885,6.885,0,0,0-5.621-1.217,9.887,9.887,0,0,0-4.735,2.833l-.032.033c-5.955,5.951-12.03,12.016-18.059,18.025l-.022.022a7.571,7.571,0,0,0-1.692,2.378,10.737,10.737,0,0,0-.775,5.44c0,.024.005.048.006.072A8.159,8.159,0,0,0-3936.171-774.551Zm24.572,4.145a1.258,1.258,0,0,1-.9-.378l-.769-.788c-.556-.57-1.081-1.109-1.609-1.641l-3.612-3.612c-.115-.112-.228-.231-.312-.322-2.156-2.306-2.218-4.948-.171-7.248.99-1.108,2.051-2.155,3.077-3.168.426-.421.868-.856,1.293-1.286s.878-.88,1.329-1.329l.751-.749a1.258,1.258,0,0,1,1.778,0l1.157,1.152c.47.468.933.927,1.393,1.387l.845.846c.93.93,1.891,1.892,2.826,2.854a5.693,5.693,0,0,1,1.641,3.083c0,.02.007.04.01.061a5.118,5.118,0,0,1-1.708,4.53c-.879.888-1.777,1.783-2.646,2.649q-1.1,1.093-2.189,2.189c-.265.267-.528.559-.807.868-.145.16-.293.326-.451.5a1.259,1.259,0,0,1-.907.407Zm-.032-17.858c-.4.4-.793.791-1.183,1.184-.435.44-.881.88-1.312,1.305-1,.986-2.031,2-2.967,3.053-1.187,1.334-1.148,2.488.131,3.857.072.077.156.166.244.252l3.624,3.623c.486.489.964.978,1.463,1.491.142-.153.285-.3.434-.454q1.094-1.1,2.2-2.2c.876-.874,1.783-1.777,2.667-2.671.024-.025.049-.048.076-.07a2.61,2.61,0,0,0,.9-2.3,3.191,3.191,0,0,0-.923-1.707l-.027-.028c-.928-.954-1.887-1.914-2.815-2.842l-.845-.847c-.457-.457-.918-.915-1.386-1.381Z" transform="translate(0)" fill="#fff"/>
    <g id="Path_681" data-name="Path 681" transform="translate(-3919.997 -806.566)">
      <g id="Group_848" data-name="Group 848" transform="translate(0 0)">
        <path id="Path_738" data-name="Path 738" d="M-3765.787-718.764h-.181a10.143,10.143,0,0,1-2.968-.563l-.032-.012a14.01,14.01,0,0,1-4.008-2.349,5.152,5.152,0,0,1-.627-.584,1.962,1.962,0,0,1,.026-2.743q.048-.047.1-.091.464-.459.934-.914l.886-.863c.486-.473.989-.962,1.475-1.445s.966-.963,1.448-1.444q.611-.612,1.224-1.223.569-.566,1.142-1.131c.7-.687,1.414-1.4,2.111-2.1.22-.222.433-.459.658-.71.249-.277.507-.564.786-.843.336-.336.681-.657,1.015-.967.292-.272.568-.528.839-.794.41-.4.824-.828,1.225-1.238.323-.33.656-.671.99-1.005.394-.392.79-.78,1.187-1.168.418-.409.851-.833,1.27-1.251.277-.277.545-.558.829-.855.248-.26.5-.529.767-.794.215-.217.432-.419.641-.615.192-.18.373-.35.546-.523.367-.367.74-.753,1.1-1.126l.506-.522a9.869,9.869,0,0,1,1.216-1.208.694.694,0,0,0,.239-.51,1.27,1.27,0,0,1,.025-.223,2.4,2.4,0,0,0-.616-2.141c-.963-.975-1.95-1.96-2.906-2.912l-1.206-1.2q-.468-.467-.938-.934c-.715-.71-1.454-1.444-2.173-2.181-.228-.234-.458-.465-.687-.7a34.628,34.628,0,0,1-2.371-2.56,7.1,7.1,0,0,1-1.721-5.089c0-.019,0-.039,0-.058a11.5,11.5,0,0,1,.738-3.006,11.868,11.868,0,0,1,2.857-4.219,1.991,1.991,0,0,1,1.038-1.02,1.763,1.763,0,0,1,2.014.295,1.3,1.3,0,0,1,.116.119,5.16,5.16,0,0,0,.735.71,3.891,3.891,0,0,1,.962.894,2.69,2.69,0,0,0,.293.321,9.634,9.634,0,0,1,.973.955c.161.175.314.34.467.489.185.18.382.359.59.548.282.256.575.521.857.809.387.395.761.8,1.123,1.194.252.274.513.557.77.827.428.451.791.813,1.141,1.141.179.168.37.331.572.5.291.249.591.506.882.8s.554.594.809.885c.236.27.46.526.691.759.216.218.458.43.714.655s.527.462.789.722c.233.231.433.466.625.693.169.2.328.387.487.543.308.3.628.592.966.9.316.287.643.583.961.892a5.629,5.629,0,0,1,.515.6,4.165,4.165,0,0,0,.271.327c.155.159.327.317.511.484a9.189,9.189,0,0,1,1.017,1.038l.014.017a7.825,7.825,0,0,1,1.061,1.845,13.056,13.056,0,0,1,1.131,5.519,1.25,1.25,0,0,1-.016.181,21.4,21.4,0,0,0-.244,2.241c0,.013,0,.026,0,.039a8.71,8.71,0,0,1-1.092,3.515,10.7,10.7,0,0,1-2.51,3.117c-.736.707-1.47,1.451-2.181,2.17q-.533.54-1.069,1.078-.592.591-1.185,1.178c-.572.568-1.164,1.155-1.741,1.736q-.9.9-1.794,1.811c-.821.831-1.671,1.69-2.513,2.531-.776.774-1.572,1.547-2.341,2.3q-.486.473-.972.946l-.783.766c-.713.7-1.451,1.418-2.164,2.133a16.682,16.682,0,0,1-1.479,1.572,1.268,1.268,0,0,1-.109.091,27.866,27.866,0,0,1-2.827,1.839l-.027.015A9.329,9.329,0,0,1-3765.787-718.764Zm-.1-2.516a6.791,6.791,0,0,0,3.293-.8,25.366,25.366,0,0,0,2.5-1.622,14.2,14.2,0,0,0,1.238-1.327c.026-.031.053-.061.081-.09.738-.742,1.5-1.483,2.23-2.2l.782-.765.977-.952c.763-.742,1.553-1.51,2.317-2.272.835-.835,1.682-1.691,2.5-2.519q.9-.909,1.8-1.816c.583-.586,1.178-1.177,1.753-1.748q.59-.585,1.178-1.172.531-.53,1.057-1.066c.732-.741,1.488-1.507,2.258-2.245.019-.018.039-.036.059-.053a8.2,8.2,0,0,0,1.953-2.42l.018-.031a6.177,6.177,0,0,0,.779-2.485,23.914,23.914,0,0,1,.257-2.391,10.525,10.525,0,0,0-.921-4.38c-.007-.016-.014-.031-.02-.047a5.328,5.328,0,0,0-.721-1.26,7.269,7.269,0,0,0-.746-.746c-.2-.184-.409-.374-.614-.585a6.153,6.153,0,0,1-.455-.538,3.659,3.659,0,0,0-.285-.341c-.284-.276-.582-.546-.9-.831-.341-.31-.693-.63-1.036-.966-.242-.238-.447-.48-.645-.714-.165-.195-.321-.379-.477-.533-.208-.206-.435-.406-.676-.617-.278-.243-.564-.494-.843-.776s-.546-.586-.8-.872-.466-.532-.7-.769c-.219-.22-.469-.434-.733-.66-.215-.184-.437-.374-.656-.579-.386-.361-.782-.756-1.245-1.244-.271-.284-.538-.575-.8-.856-.365-.4-.709-.77-1.069-1.137-.231-.235-.483-.464-.75-.706-.216-.2-.438-.4-.656-.609-.2-.2-.383-.393-.56-.585a7.685,7.685,0,0,0-.718-.716,4.626,4.626,0,0,1-.633-.658,1.756,1.756,0,0,0-.353-.363,1.3,1.3,0,0,1-.151-.1q-.284-.218-.547-.463l-.056.057-.023.022a9.335,9.335,0,0,0-2.318,3.384,8.971,8.971,0,0,0-.573,2.317,4.6,4.6,0,0,0,1.126,3.279l.029.035a32.016,32.016,0,0,0,2.214,2.387c.235.237.469.474.7.713.7.722,1.436,1.449,2.143,2.151q.472.469.944.939l1.2,1.2c.961.958,1.955,1.948,2.927,2.933l.012.013a4.92,4.92,0,0,1,1.292,4.288,3.215,3.215,0,0,1-1.13,2.259,7.377,7.377,0,0,0-.936.935c-.021.025-.042.049-.065.072l-.532.549c-.368.38-.749.773-1.13,1.155-.2.2-.407.394-.605.58s-.392.368-.574.551c-.244.246-.492.507-.733.759-.281.295-.572.6-.87.9-.429.429-.866.857-1.29,1.271-.391.382-.781.764-1.169,1.15-.322.322-.65.657-.967.982-.409.419-.832.852-1.26,1.273-.3.291-.6.572-.89.843-.332.309-.646.6-.949.9-.232.232-.456.481-.693.745s-.479.533-.741.8c-.708.715-1.431,1.43-2.131,2.122q-.569.563-1.137,1.126-.611.607-1.218,1.217-.727.727-1.455,1.452c-.494.491-1,.985-1.493,1.463l-.885.862-.6.581.01.008a11.5,11.5,0,0,0,3.287,1.933A7.631,7.631,0,0,0-3765.886-721.28Z" transform="translate(3774.148 774.79)" fill="#e75110"/>
      </g>
    </g>
  </g>
</svg>
