<svg xmlns="http://www.w3.org/2000/svg" width="20.122" height="20.124" viewBox="0 0 20.122 20.124">
  <path id="Path_683" data-name="Path 683" d="M6849.253,2023.365a2.444,2.444,0,0,0-1.692.766,2.408,2.408,0,0,0-.744,1.673,2.592,2.592,0,0,0,2.435,2.422h0a2.432,2.432,0,0,0,0-4.861Zm.886,2.873a.826.826,0,0,1-.895.51c-.342,0-.681-.057-.838-.425a1.173,1.173,0,0,1,.069-1.17.8.8,0,0,1,.695-.317c.111,0,.226.011.318.021a.711.711,0,0,1,.65.491A1.335,1.335,0,0,1,6850.139,2026.238Zm12.538-13.357a.741.741,0,0,0-.827-.544h-13.533l-.039,0h0c-.02,0-.042,0-.066,0a.258.258,0,0,1-.111-.022c-.02-.009-.189-.09-.208-.222-.079-.536-.153-1.062-.208-1.6a2.6,2.6,0,0,0-1.73-2.267c-.088-.037-.181-.065-.277-.1h-.005l-.083-.026-.033-.01h-2.426l-.045.021a.938.938,0,0,0-.476.476l-.021.045v.4l.022.047a.88.88,0,0,0,.9.5l.09,0c.189-.008.389-.012.628-.012.194,0,.392,0,.583.005h.007c.165,0,.331,0,.5.005a.783.783,0,0,1,.852.742c.113.829.223,1.667.33,2.477l.069.529.209,1.6v.009q.1.767.2,1.534.075.566.152,1.132c.107.789.217,1.6.311,2.408a2.63,2.63,0,0,0,2.536,2.281h8.544a5.111,5.111,0,0,0,.714-.038,2.618,2.618,0,0,0,2.042-1.895c.082-.386.159-.777.232-1.156.043-.223.086-.446.132-.668l.247-1.224.04-.193c.254-1.259.517-2.562.771-3.843A.938.938,0,0,0,6862.677,2012.881Zm-1.654,1.074c0,.016,0,.031,0,.047v0a.969.969,0,0,1-.014.126q-.245,1.23-.492,2.459-.342,1.712-.683,3.424a.85.85,0,0,1-.966.8h-8.957a.836.836,0,0,1-.979-.836c-.1-.709-.191-1.431-.28-2.129l-.008-.059q-.062-.479-.124-.958-.1-.807-.212-1.615s-.1-.793-.154-1.176c0-.021,0-.042,0-.064s0-.022,0-.035l-.006-.119h12.9Zm-1.588,9.41a2.449,2.449,0,0,0-1.693.76,2.432,2.432,0,0,0,1.677,4.1h0a2.451,2.451,0,0,0,1.688-.755,2.436,2.436,0,0,0-1.674-4.107Zm.878,2.876a.826.826,0,0,1-.893.508h0c-.342,0-.68-.059-.837-.428a1.178,1.178,0,0,1,.071-1.167.6.6,0,0,1,.383-.253,3.5,3.5,0,0,1,.413-.025,2.828,2.828,0,0,1,.377.024.622.622,0,0,1,.491.451A1.334,1.334,0,0,1,6860.312,2026.241Z" transform="translate(-6842.583 -2008.102)" fill="#fff"/>
</svg>
