<svg width="0" height="0" class="hidden">
  <symbol xmlns="http://www.w3.org/2000/svg" viewBox="0 0 53.348 56.732" id="7days">
    <g id="Group_845" transform="translate(7093.783 782.628)">
      <path id="Path_733" d="M-7077.653-776.59c0-1.412,0-2.744,0-4.075a1.733,1.733,0,0,1,1.733-1.957,1.749,1.749,0,0,1,1.719,1.978c0,1.33,0,2.66,0,4.023h14.182c0-1.286,0-2.556,0-3.826a4.125,4.125,0,0,1,.038-.809,1.727,1.727,0,0,1,1.828-1.367,1.709,1.709,0,0,1,1.578,1.7c.018,1.411.005,2.822.005,4.332h10.433a5.912,5.912,0,0,1,5.694,5.679q.009,19.728,0,39.456a5.886,5.886,0,0,1-5.576,5.549q-11.4.019-22.8.007-9.571,0-19.143,0a5.84,5.84,0,0,1-5.826-5.82q0-19.525,0-39.049a5.864,5.864,0,0,1,5.84-5.817c3.19-.008,6.381,0,9.571,0Zm-12.68,16.942v.816q0,13.574,0,27.148c0,1.673.625,2.325,2.3,2.327q7.047.01,14.094,0,13.948,0,27.9,0a1.9,1.9,0,0,0,2.152-2.135q0-13.777,0-27.554c0-.2-.019-.405-.028-.6Zm12.679-13.465c-.226-.01-.395-.024-.564-.024q-4.9,0-9.805,0c-1.655,0-2.306.666-2.31,2.339q-.006,3.54,0,7.08c0,.186.019.371.028.554h46.4c.008-.152.021-.265.021-.378,0-2.456.009-4.913,0-7.37-.007-1.536-.71-2.223-2.254-2.225q-4.786-.006-9.573,0h-.846v.636c0,.909.009,1.818-.007,2.727a1.71,1.71,0,0,1-1.718,1.742,1.713,1.713,0,0,1-1.726-1.733c-.012-.6,0-1.2-.006-1.8V-773.1H-7074.2c0,1.123,0,2.2,0,3.284a1.666,1.666,0,0,1-1.009,1.624,1.708,1.708,0,0,1-2.433-1.54C-7077.678-770.843-7077.654-771.96-7077.654-773.113Z" transform="translate(0 0)" fill="#fff"></path>
      <g id="Group_844" transform="translate(-7075.302 -755.414)">
        <path id="Path_734" d="M-6928.838-532.693a32.514,32.514,0,0,0-1.473-5.184,36.218,36.218,0,0,0-2.091-4.546q-1.172-2.132-2.392-4.1l2.96-1.894q1.052,1.74,1.894,3.4t1.508,3.3q.667,1.641,1.179,3.3t.919,3.381q.505-1.95,1.129-3.963t1.291-3.83q.667-1.817,1.326-3.3a18.232,18.232,0,0,1,1.234-2.385l2.946,1.894q-.477.772-.975,1.775t-1,2.168q-.5,1.165-1.017,2.469t-1,2.68a47.834,47.834,0,0,0-1.726,5.906,25.01,25.01,0,0,0-.617,4.938h-3.536A30.653,30.653,0,0,0-6928.838-532.693Z" transform="translate(6934.794 548.511)" fill="#e75110"></path>
      </g>
    </g>
  </symbol>
  <symbol xmlns="http://www.w3.org/2000/svg" viewBox="0 0 17.602 31.019" id="gth">
    <path id="Path_685" d="M4949.62-2322.261a3.551,3.551,0,0,1-1.065,1.561q-5.682,5.673-11.35,11.359c-.082.082-.161.168-.33.345a1.79,1.79,0,0,1,.336.21q5.735,5.733,11.464,11.472a2.435,2.435,0,0,1,.758,1.237,2.027,2.027,0,0,1-.866,2.121,2.006,2.006,0,0,1-2.313-.065,3.272,3.272,0,0,1-.362-.316q-6.571-6.577-13.141-13.156a2.023,2.023,0,0,1-.454-2.563,4.244,4.244,0,0,1,.658-.782q6.509-6.526,13.022-13.048a3.037,3.037,0,0,1,1.2-.751h.834a9.043,9.043,0,0,1,.925.52,2.2,2.2,0,0,1,.68,1.152Z" transform="translate(-4932.018 2324.64)" fill="#f0f0f0"></path>
  </symbol>
  <symbol xmlns="http://www.w3.org/2000/svg" viewBox="0 0 59.565 56.732" id="delivery">
    <g id="Group_846" transform="translate(6369.275 754.847)">
      <path id="Path_735" d="M-6369.275-713.57c.272-1.144.455-2.319.829-3.429a14.119,14.119,0,0,1,14.937-9.381,14.183,14.183,0,0,1,12.46,11.917,14.228,14.228,0,0,1-11.484,16.127,14.2,14.2,0,0,1-16.588-11.825c-.045-.284-.1-.567-.154-.85Zm25.6,1.3a11.445,11.445,0,0,0-11.19-11.424,11.419,11.419,0,0,0-11.628,11.392,11.444,11.444,0,0,0,11.189,11.425A11.423,11.423,0,0,0-6343.672-712.274Zm5.48,2.236,2.435,1v-.686q0-11.254.012-22.509a.757.757,0,0,0-.56-.844c-1.921-.772-3.826-1.585-5.736-2.384-.667-.279-.808-.839-.246-1.293a14.114,14.114,0,0,1,1.378-.713,1.433,1.433,0,0,1,1.474.079c1.533.648,3.065,1.3,4.61,1.916a1.192,1.192,0,0,0,.814.026q9.445-3.9,18.874-7.833c.1-.042.193-.1.4-.216l-5.823-2.531c1.22-.51,2.315-.978,3.42-1.418a.745.745,0,0,1,.485.083c1.976.843,3.945,1.7,5.921,2.542a1.547,1.547,0,0,1,1.021,1.584q-.016,13.145,0,26.29a1.577,1.577,0,0,1-1.069,1.612q-11.457,4.806-22.918,9.6a2.017,2.017,0,0,1-1.331,0c-1.146-.408-2.25-.937-3.382-1.388-.349-.139-.407-.3-.306-.652C-6338.511-708.489-6338.374-709.23-6338.192-710.037Zm15.25-12.4c0,1.366-.01,2.624.011,3.882a1.858,1.858,0,0,0,.233.592,1.908,1.908,0,0,0,.567-.321c.413-.487.783-1.01,1.169-1.519q3.108-4.1,6.216-8.2c.492-.649.434-.888-.281-1.233q-3.344-1.617-6.691-3.23c-.847-.409-1.217-.183-1.226.776-.01,1.046-.033,2.094.012,3.139a.889.889,0,0,1-.653,1.025c-2.335.934-4.645,1.929-6.973,2.88a.643.643,0,0,0-.49.722c.034.677.009,1.356.009,2.034v2.827Zm-21.443-7.857c0-2.133.006-4.266,0-6.4a1.729,1.729,0,0,1,1.154-1.76q9.388-3.961,18.769-7.938l5.046-2.139c-.254-.119-.425-.2-.6-.279-1.458-.628-2.926-1.231-4.367-1.894a1.633,1.633,0,0,0-1.465-.017c-4.437,1.88-8.888,3.728-13.334,5.584q-5.09,2.124-10.182,4.242a1.46,1.46,0,0,0-1.049,1.44c0,2.4.01,4.808-.009,7.213a.549.549,0,0,0,.42.587c1.448.6,2.891,1.213,4.335,1.821l1.285.541Zm16.562-21.878c-1.953-.845-3.908-1.685-5.859-2.535a1.787,1.787,0,0,0-1.509.061q-11.348,4.9-22.707,9.785a1.686,1.686,0,0,0-1.142,1.744c.024,4.574.011,9.149.013,13.723,0,.181.021.361.031.533l2.766-.424v-12.07l3.752,1.553,1.34-2.435-2.876-1.223c.226-.12.323-.181.428-.226q9.433-4.071,18.871-8.127a1.012,1.012,0,0,1,.7.013c.863.342,1.7.739,2.564,1.087a.972.972,0,0,0,.649.048c1.062-.415,2.108-.87,3.245-1.347A2.879,2.879,0,0,0-6327.824-752.172Z" fill="#fff"></path>
      <path id="Path_736" d="M-6311.651-465.8q0-1.192,0-2.383c0-.853-.445-1.379-1.154-1.373s-1.133.529-1.133,1.393c0,1.589-.011,3.178.01,4.766a.793.793,0,0,1-.423.785,2.8,2.8,0,0,0-.951,3.683,2.884,2.884,0,0,0,3.593,1.311,1.3,1.3,0,0,1,.849.011c1.442.559,2.863,1.172,4.3,1.734a2.458,2.458,0,0,0,1.118.193,1.661,1.661,0,0,0,1.45-1.516,1.732,1.732,0,0,0-1.107-1.74c-1.481-.615-2.977-1.2-4.45-1.836a2.135,2.135,0,0,1-.632-.6c-.381-.426-.756-.859-1.111-1.306a1.3,1.3,0,0,1-.348-.629c-.04-.831-.016-1.666-.016-2.5Zm-.934,14.007c-5.877-.8-8.655-7.828-4.694-12.081a2.035,2.035,0,0,0,.481-1.15c.069-.919.021-1.848.021-2.786a8.412,8.412,0,0,0-4.473,9.194,8.517,8.517,0,0,0,9.121,6.886Z" transform="translate(-42.286 -252.038)" fill="#e75110"></path>
    </g>
  </symbol>
  <symbol xmlns="http://www.w3.org/2000/svg" viewBox="0 0 17.602 31.019" id="lth">
    <path id="Path_685" d="M4949.62-2322.261a3.551,3.551,0,0,1-1.065,1.561q-5.682,5.673-11.35,11.359c-.082.082-.161.168-.33.345a1.79,1.79,0,0,1,.336.21q5.735,5.733,11.464,11.472a2.435,2.435,0,0,1,.758,1.237,2.027,2.027,0,0,1-.866,2.121,2.006,2.006,0,0,1-2.313-.065,3.272,3.272,0,0,1-.362-.316q-6.571-6.577-13.141-13.156a2.023,2.023,0,0,1-.454-2.563,4.244,4.244,0,0,1,.658-.782q6.509-6.526,13.022-13.048a3.037,3.037,0,0,1,1.2-.751h.834a9.043,9.043,0,0,1,.925.52,2.2,2.2,0,0,1,.68,1.152Z" transform="translate(-4932.018 2324.64)" fill="#192430"></path>
  </symbol>
  <symbol xmlns="http://www.w3.org/2000/svg" viewBox="0 0 11.999 11.992" id="star">
    <path id="Path_686" d="M6564.222-4546.539h.321a1.048,1.048,0,0,1,.674.648c.416.91.849,1.813,1.28,2.716a.21.21,0,0,0,.125.111c1.015.157,2.032.307,3.047.46a.8.8,0,0,1,.485.26.865.865,0,0,1-.047,1.216c-.719.737-1.442,1.471-2.161,2.209a.236.236,0,0,0-.073.167c.168,1.054.345,2.106.517,3.16a.841.841,0,0,1-.347.893.821.821,0,0,1-.93.013c-.875-.487-1.755-.965-2.63-1.453a.214.214,0,0,0-.242,0c-.869.489-1.741.972-2.611,1.461a.826.826,0,0,1-.616.1.852.852,0,0,1-.64-1.021c.169-1.036.337-2.072.512-3.107a.22.22,0,0,0-.067-.222q-1.054-1.074-2.1-2.152a1.845,1.845,0,0,1-.152-.168.853.853,0,0,1,.563-1.367c.137-.019.272-.042.409-.062.857-.131,1.715-.263,2.573-.39a.226.226,0,0,0,.2-.145c.414-.9.839-1.788,1.246-2.688A1.043,1.043,0,0,1,6564.222-4546.539Z" transform="translate(-6558.382 4546.539)" fill="#ffdb12"></path>
  </symbol>
  <symbol xmlns="http://www.w3.org/2000/svg" viewBox="0 0 19.127 16.7" id="store">
    <g id="Group_857" transform="translate(4224.633 -2685.55)">
      <g id="Group_764" transform="translate(-4224.633 2685.55)">
        <path id="Path_687" d="M-3972.544,2918.25h-2.6a1.291,1.291,0,0,0-1.29,1.29v1.993a1.291,1.291,0,0,0,1.29,1.29h2.6a1.291,1.291,0,0,0,1.29-1.29v-1.993A1.291,1.291,0,0,0-3972.544,2918.25Zm.352,3.283a.353.353,0,0,1-.352.352h-2.6a.353.353,0,0,1-.352-.352v-1.993a.353.353,0,0,1,.352-.352h2.6a.353.353,0,0,1,.352.352Z" transform="translate(3986.133 -2909.156)" fill="#fff"></path>
        <path id="Path_688" d="M-4205.506,2691.021a.435.435,0,0,0-.062-.23l-2.845-5a.471.471,0,0,0-.407-.238h-12.5a.463.463,0,0,0-.406.238l-2.841,5a.474.474,0,0,0-.062.23,2.744,2.744,0,0,0,1.642,2.509v8.25a.47.47,0,0,0,.469.469h14.9a.47.47,0,0,0,.469-.469v-8.192a.206.206,0,0,0,0-.051A2.751,2.751,0,0,0-4205.506,2691.021Zm-15.543-4.53h11.955l2.224,3.912h-16.4Zm10.028,4.846a1.8,1.8,0,0,1-1.774,1.485,1.8,1.8,0,0,1-1.774-1.485Zm-4.545,0a1.8,1.8,0,0,1-1.774,1.485,1.809,1.809,0,0,1-1.778-1.485Zm-8.1,0h3.553a1.806,1.806,0,0,1-1.778,1.485A1.8,1.8,0,0,1-4223.664,2691.338Zm6.91,9.974h-2.7v-5.061a.668.668,0,0,1,.668-.668h1.364a.668.668,0,0,1,.668.668v5.061Zm8.665,0h-7.727v-5.061a1.609,1.609,0,0,0-1.606-1.606h-1.364a1.609,1.609,0,0,0-1.606,1.606v5.065h-1.661v-7.555c.055,0,.109,0,.164,0a2.74,2.74,0,0,0,2.274-1.211,2.741,2.741,0,0,0,2.275,1.211,2.746,2.746,0,0,0,2.274-1.211,2.738,2.738,0,0,0,2.271,1.211,2.734,2.734,0,0,0,2.271-1.211,2.74,2.74,0,0,0,2.274,1.211c.055,0,.105,0,.16,0v7.551Zm-.16-8.485a1.8,1.8,0,0,1-1.774-1.485h3.553A1.812,1.812,0,0,1-4208.25,2692.827Z" transform="translate(4224.633 -2685.55)" fill="#fff"></path>
      </g>
    </g>
  </symbol>
  <symbol xmlns="http://www.w3.org/2000/svg" viewBox="0 0 21.997 22" id="user">
    <path id="Path_684" d="M1390.224,2011.379a11,11,0,1,1-11.012-10.995A11.026,11.026,0,0,1,1390.224,2011.379Zm-13.96,1.837a4.971,4.971,0,0,1-2.044-3.7,4.831,4.831,0,0,1,1.5-3.93,4.993,4.993,0,0,1,6.955-.047,4.81,4.81,0,0,1,1.557,3.375,4.991,4.991,0,0,1-2.052,4.313,7.935,7.935,0,0,1,2.811,1.5,5.745,5.745,0,0,1,1.774,2.6,9.6,9.6,0,1,0-15.086-.025A6.686,6.686,0,0,1,1376.265,2013.217Zm2.96,7.8a9.534,9.534,0,0,0,6.258-2.345.332.332,0,0,0,.106-.271,7.028,7.028,0,0,0-.441-1.335,5.059,5.059,0,0,0-2.8-2.321,8.637,8.637,0,0,0-4.135-.507,7.243,7.243,0,0,0-3.368,1.165,4.3,4.3,0,0,0-1.978,2.939.322.322,0,0,0,.109.346A9.616,9.616,0,0,0,1379.225,2021.012Zm-.007-8.218a3.632,3.632,0,1,0-3.627-3.642A3.624,3.624,0,0,0,1379.218,2012.794Z" transform="translate(-1368.228 -2000.385)" fill="#fff"></path>
  </symbol>
  <symbol xmlns="http://www.w3.org/2000/svg" viewBox="0 0 20.123 20.124" id="search">
    <path id="Path_680" d="M663.814,431.668a1.19,1.19,0,0,1,.192.131q2.294,2.289,4.586,4.581a1.109,1.109,0,0,1,.35,1.2,1.047,1.047,0,0,1-.95.749,1.1,1.1,0,0,1-.917-.371l-3.563-3.566q-.608-.609-1.212-1.217a8.35,8.35,0,1,1,1.514-1.509Zm-.442-5.12a6.155,6.155,0,1,0-6.155,6.161A6.159,6.159,0,0,0,663.372,426.548Z" transform="translate(-648.879 -418.212)" fill="#192430"></path>
  </symbol>
  <symbol xmlns="http://www.w3.org/2000/svg" viewBox="0 0 44.501 44.509" id="twitter">
    <path id="Path_497" d="M2692.483,6215.87c-1.03-.113-2.063-.2-3.088-.344a22.223,22.223,0,1,1,20.953-35.726,21.955,21.955,0,0,1,4.771,12.637c.013.236.06.471.091.706v1.115c-.144,1.116-.238,2.242-.441,3.347a21.707,21.707,0,0,1-7.478,12.922c-.843.72-1.78,1.333-2.691,1.97-.546.381-1.03.324-1.323-.1-.311-.447-.176-.939.4-1.3a20.34,20.34,0,0,0,6.929-7.024,19.611,19.611,0,0,0,2.5-14.138c-1.671-8.312-6.675-13.79-14.8-16.147a20.53,20.53,0,1,0,1.351,39.208c.862-.3,1.31-.19,1.509.364s-.08.924-.943,1.224a21.9,21.9,0,0,1-6.421,1.21,3.212,3.212,0,0,0-.436.073Zm9.042-26.257c-.15.873-.116,1.776-.24,2.655a11.612,11.612,0,0,1-3.939,7.563,12.538,12.538,0,0,1-8.1,2.9c-.654.016-.995.289-.986.792s.367.788,1.016.753a20.832,20.832,0,0,0,2.543-.229,12.987,12.987,0,0,0,8.4-4.982,15.043,15.043,0,0,0,2.825-8.746.971.971,0,0,1,.426-.828c.847-.633,1.675-1.29,2.5-1.945a.768.768,0,0,0,.268-.944.747.747,0,0,0-.853-.475c-.307.035-.613.084-.974.134.105-.224.179-.392.262-.555a.957.957,0,0,0-.09-1.229c-.383-.375-.8-.264-1.231-.064a15.1,15.1,0,0,1-1.7.687.884.884,0,0,1-.686-.124,5.624,5.624,0,0,0-8.92,5.394.783.783,0,0,0,.845.71.744.744,0,0,0,.7-.842c-.01-.223-.022-.444-.029-.667a3.79,3.79,0,0,1,2.163-3.665,3.694,3.694,0,0,1,4.23.323,1.773,1.773,0,0,0,1.966.455c.026-.012.078.032.127.054-.708.734-.656,1.129.088,1.593A5.156,5.156,0,0,0,2701.525,6189.612Zm-15.99,7.208c.529-.066,1.144-.033,1.255-.746.117-.746-.495-.849-1-1.02-.053-.018-.106-.035-.156-.057a3.946,3.946,0,0,1-2.237-2.551,2.962,2.962,0,0,0,.938.1,1.288,1.288,0,0,0,.771-.488c.107-.183-.047-.536-.127-.8-.033-.108-.174-.188-.275-.269a3.932,3.932,0,0,1-1.424-2.564,12.229,12.229,0,0,1-.013-1.652c.238.205.323.271.4.346a14.707,14.707,0,0,0,6.142,3.457c.6.175,1.05.01,1.2-.447s-.124-.844-.727-1.054c-.646-.226-1.3-.435-1.929-.7a12.536,12.536,0,0,1-4.373-3.183c-.644-.708-1.3-.645-1.718.214a6.362,6.362,0,0,0-.562,1.837,5.667,5.667,0,0,0,.583,3.2,1.225,1.225,0,0,0-.614,1.387,5.494,5.494,0,0,0,1.263,3.032c.3.364.7.645.436,1.225-.067.145.048.4.123.581a5.485,5.485,0,0,0,2.964,3c-.154.077-.248.132-.348.173a9.375,9.375,0,0,1-4.356.661.819.819,0,0,0-.914.575.827.827,0,0,0,.4,1.005,13.38,13.38,0,0,0,4.991,1.937.778.778,0,0,0,.364-1.508,4.8,4.8,0,0,0-.485-.116c-.453-.12-.9-.243-1.5-.405.834-.275,1.534-.449,2.182-.737a14.836,14.836,0,0,0,1.975-1.1.756.756,0,0,0,.343-1.013,1.442,1.442,0,0,0-.818-.527,4.8,4.8,0,0,1-2.887-1.723A.667.667,0,0,1,2685.535,6196.82Z" transform="translate(-2670.709 -6171.361)" fill="#7c90a7"></path>
  </symbol>
  <symbol xmlns="http://www.w3.org/2000/svg" viewBox="0 0 20.122 20.124" id="shop">
    <path id="Path_683" d="M6849.253,2023.365a2.444,2.444,0,0,0-1.692.766,2.408,2.408,0,0,0-.744,1.673,2.592,2.592,0,0,0,2.435,2.422h0a2.432,2.432,0,0,0,0-4.861Zm.886,2.873a.826.826,0,0,1-.895.51c-.342,0-.681-.057-.838-.425a1.173,1.173,0,0,1,.069-1.17.8.8,0,0,1,.695-.317c.111,0,.226.011.318.021a.711.711,0,0,1,.65.491A1.335,1.335,0,0,1,6850.139,2026.238Zm12.538-13.357a.741.741,0,0,0-.827-.544h-13.533l-.039,0h0c-.02,0-.042,0-.066,0a.258.258,0,0,1-.111-.022c-.02-.009-.189-.09-.208-.222-.079-.536-.153-1.062-.208-1.6a2.6,2.6,0,0,0-1.73-2.267c-.088-.037-.181-.065-.277-.1h-.005l-.083-.026-.033-.01h-2.426l-.045.021a.938.938,0,0,0-.476.476l-.021.045v.4l.022.047a.88.88,0,0,0,.9.5l.09,0c.189-.008.389-.012.628-.012.194,0,.392,0,.583.005h.007c.165,0,.331,0,.5.005a.783.783,0,0,1,.852.742c.113.829.223,1.667.33,2.477l.069.529.209,1.6v.009q.1.767.2,1.534.075.566.152,1.132c.107.789.217,1.6.311,2.408a2.63,2.63,0,0,0,2.536,2.281h8.544a5.111,5.111,0,0,0,.714-.038,2.618,2.618,0,0,0,2.042-1.895c.082-.386.159-.777.232-1.156.043-.223.086-.446.132-.668l.247-1.224.04-.193c.254-1.259.517-2.562.771-3.843A.938.938,0,0,0,6862.677,2012.881Zm-1.654,1.074c0,.016,0,.031,0,.047v0a.969.969,0,0,1-.014.126q-.245,1.23-.492,2.459-.342,1.712-.683,3.424a.85.85,0,0,1-.966.8h-8.957a.836.836,0,0,1-.979-.836c-.1-.709-.191-1.431-.28-2.129l-.008-.059q-.062-.479-.124-.958-.1-.807-.212-1.615s-.1-.793-.154-1.176c0-.021,0-.042,0-.064s0-.022,0-.035l-.006-.119h12.9Zm-1.588,9.41a2.449,2.449,0,0,0-1.693.76,2.432,2.432,0,0,0,1.677,4.1h0a2.451,2.451,0,0,0,1.688-.755,2.436,2.436,0,0,0-1.674-4.107Zm.878,2.876a.826.826,0,0,1-.893.508h0c-.342,0-.68-.059-.837-.428a1.178,1.178,0,0,1,.071-1.167.6.6,0,0,1,.383-.253,3.5,3.5,0,0,1,.413-.025,2.828,2.828,0,0,1,.377.024.622.622,0,0,1,.491.451A1.334,1.334,0,0,1,6860.312,2026.241Z" transform="translate(-6842.583 -2008.102)" fill="#fff"></path>
  </symbol>
  <symbol xmlns="http://www.w3.org/2000/svg" viewBox="0 0 38.537 40.505" id="phone">
    <path id="Path_212" d="M3483.659,1174.829a58.3,58.3,0,0,0-3.592-5.1,5.151,5.151,0,0,0-7.35-.953c-.616.467-1.264.892-1.921,1.353a40.962,40.962,0,0,1-6.252-8.929c.753-.528,1.489-1.039,2.221-1.556a4.827,4.827,0,0,0,2.036-2.952,5.8,5.8,0,0,0-1-4.611c-.917-1.383-1.879-2.737-2.855-4.08a7.722,7.722,0,0,0-1.159-1.256,5.053,5.053,0,0,0-6.561-.341c-.969.68-1.923,1.383-2.912,2.032a4.921,4.921,0,0,0-2.142,2.976,13.891,13.891,0,0,0-.411,2.649,18.209,18.209,0,0,0,.7,5.565,37.142,37.142,0,0,0,4.707,10.575,40.134,40.134,0,0,0,11.251,12.012,15.519,15.519,0,0,0,6.731,2.86,5.229,5.229,0,0,0,3.763-.711c1.2-.821,2.407-1.64,3.575-2.508a4.715,4.715,0,0,0,1.936-5.023A5.778,5.778,0,0,0,3483.659,1174.829Zm-2.48,5.028c-1.185.867-2.383,1.719-3.605,2.533a3.257,3.257,0,0,1-2.571.253,14.849,14.849,0,0,1-5.293-2.447,35.74,35.74,0,0,1-8.825-8.747,37.463,37.463,0,0,1-6.014-12,16.906,16.906,0,0,1-.747-5.065,13.3,13.3,0,0,1,.39-2.524,2.345,2.345,0,0,1,1.057-1.4c1.025-.693,2.031-1.415,3.046-2.123a2.591,2.591,0,0,1,3.565.152,5.79,5.79,0,0,1,.925,1.026c.89,1.236,1.759,2.487,2.625,3.741a4.3,4.3,0,0,1,.8,2.026,2.464,2.464,0,0,1-1.13,2.417l-3.51,2.456c-.121.084-.239.173-.42.305.759,1.4,1.468,2.807,2.266,4.161a43.254,43.254,0,0,0,6.37,8.249c.295.3.475.342.828.083,1.083-.8,2.2-1.551,3.3-2.325a2.627,2.627,0,0,1,3.511.123,5.413,5.413,0,0,1,.913.983c.914,1.269,1.805,2.554,2.694,3.842a4.223,4.223,0,0,1,.8,2.111A2.331,2.331,0,0,1,3481.178,1179.857Zm8.791-13.934-2.3-.4a16.109,16.109,0,0,0-13.016-18.6c.133-.772.262-1.527.392-2.282C3484.492,1145.989,3491.9,1155.668,3489.969,1165.923Zm-17.472-12.435.4-2.276a12.441,12.441,0,0,1,10.165,14.486l-2.3-.408a10.23,10.23,0,0,0-8.263-11.8Z" transform="translate(-3451.74 -1144.639)" fill="#7c90a7"></path>
  </symbol>
  <symbol xmlns="http://www.w3.org/2000/svg" viewBox="0 0 64.454 61.8" id="warranty">
    <g id="Group_853" transform="translate(4749.106 801.131)">
      <path id="Path_741" d="M-4686.365-773.356c-1.936-1.461-3.861-2.935-5.811-4.378a.824.824,0,0,1-.375-1.082c.766-2.382,1.485-4.779,2.208-7.175a3.535,3.535,0,0,0-3.472-4.713c-2.531-.03-5.062-.1-7.594-.12-.456,0-.611-.192-.741-.576-.8-2.37-1.627-4.734-2.443-7.1a3.532,3.532,0,0,0-5.627-1.866c-2.061,1.431-4.119,2.865-6.162,4.321a.712.712,0,0,1-.985.007c-2.042-1.458-4.1-2.89-6.16-4.324a3.538,3.538,0,0,0-5.634,1.853c-.825,2.385-1.659,4.767-2.464,7.159a.643.643,0,0,1-.713.522c-2.51.028-5.023.179-7.53.1a3.61,3.61,0,0,0-3.533,4.791c.769,2.4,1.467,4.829,2.222,7.236a.677.677,0,0,1-.292.887c-1.98,1.471-3.94,2.97-5.911,4.454-2.295,1.728-2.3,4.361-.006,6.092,1.935,1.461,3.862,2.934,5.812,4.377a.823.823,0,0,1,.372,1.083c-.767,2.382-1.485,4.779-2.208,7.174a3.538,3.538,0,0,0,3.473,4.714c2.532.029,5.063.094,7.594.122a.638.638,0,0,1,.715.516c.8,2.392,1.645,4.772,2.466,7.158a3.535,3.535,0,0,0,5.629,1.863q3.119-2.161,6.215-4.356a.637.637,0,0,1,.879,0c2.079,1.478,4.155,2.962,6.277,4.377a12.538,12.538,0,0,0,2.091.913l.074-.173a3.53,3.53,0,0,0,3.39-2.553c.832-2.4,1.669-4.808,2.479-7.22a.64.64,0,0,1,.71-.523c2.511-.026,5.021-.094,7.531-.121a3.534,3.534,0,0,0,3.524-4.764c-.732-2.415-1.46-4.831-2.213-7.239a.676.676,0,0,1,.287-.888c1.983-1.468,3.941-2.968,5.914-4.451C-4684.082-768.989-4684.075-771.627-4686.365-773.356Zm-1.894,3.665-6.813,5.15a1.736,1.736,0,0,0-.774,2.392q1.245,4.072,2.492,8.144c.255.833.117,1.028-.737,1.041l-8.734.134a1.632,1.632,0,0,0-1.769,1.305q-1.436,4.143-2.867,8.288c-.271.781-.454.844-1.118.38q-3.578-2.5-7.151-5a1.663,1.663,0,0,0-2.3,0q-3.551,2.483-7.1,4.969c-.723.505-.9.444-1.2-.406q-1.42-4.115-2.836-8.232a1.654,1.654,0,0,0-1.834-1.3q-4.367-.063-8.733-.135c-.771-.013-.916-.22-.685-.981q1.273-4.2,2.549-8.39c.067-.22.111-.448.135-.549a1.667,1.667,0,0,0-.754-1.505q-3.514-2.643-7.017-5.3c-.693-.524-.7-.715-.021-1.226q3.407-2.575,6.815-5.148a1.759,1.759,0,0,0,.789-2.444q-1.242-4.073-2.491-8.145c-.245-.8-.106-.995.715-1.007q4.334-.067,8.67-.134a1.656,1.656,0,0,0,1.87-1.339q1.423-4.114,2.846-8.229c.282-.813.468-.875,1.159-.391q3.576,2.5,7.15,5a1.641,1.641,0,0,0,2.248,0q3.551-2.481,7.1-4.966c.758-.53.928-.473,1.235.418q1.408,4.086,2.815,8.172a1.642,1.642,0,0,0,1.811,1.334l8.733.136c.82.013.954.2.709,1.011q-1.266,4.165-2.532,8.33a1.6,1.6,0,0,0,.685,2.139q3.452,2.621,6.913,5.228C-4687.55-770.4-4687.547-770.23-4688.259-769.691Zm-28.6-18.494a17.854,17.854,0,0,0-17.887,17.871,17.852,17.852,0,0,0,17.883,17.875,17.859,17.859,0,0,0,17.857-17.84A17.857,17.857,0,0,0-4716.861-788.186Zm.027,32.693a14.832,14.832,0,0,1-14.861-14.933,14.848,14.848,0,0,1,14.772-14.706,14.838,14.838,0,0,1,14.861,14.807A14.839,14.839,0,0,1-4716.834-755.493Z" fill="#fff"></path>
      <path id="Path_742" d="M-4545.219-605.685a2.18,2.18,0,0,1-.544.965q-4.406,4.449-8.848,8.863a1.779,1.779,0,0,1-2.731,0q-2.16-2.133-4.292-4.294a1.784,1.784,0,0,1-.07-2.549,1.786,1.786,0,0,1,2.593.065c1.02,1.006,2.023,2.028,3.093,3.1l3.716-3.72c1.341-1.342,2.678-2.689,4.028-4.022a1.784,1.784,0,0,1,2.2-.341A1.714,1.714,0,0,1-4545.219-605.685Z" transform="translate(-163.195 -168.762)" fill="#e75110"></path>
    </g>
  </symbol>
</svg>