<svg xmlns="http://www.w3.org/2000/svg" width="11.999" height="11.992" viewBox="0 0 11.999 11.992">
  <path id="Path_686" data-name="Path 686" d="M6564.222-4546.539h.321a1.048,1.048,0,0,1,.674.648c.416.91.849,1.813,1.28,2.716a.21.21,0,0,0,.125.111c1.015.157,2.032.307,3.047.46a.8.8,0,0,1,.485.26.865.865,0,0,1-.047,1.216c-.719.737-1.442,1.471-2.161,2.209a.236.236,0,0,0-.073.167c.168,1.054.345,2.106.517,3.16a.841.841,0,0,1-.347.893.821.821,0,0,1-.93.013c-.875-.487-1.755-.965-2.63-1.453a.214.214,0,0,0-.242,0c-.869.489-1.741.972-2.611,1.461a.826.826,0,0,1-.616.1.852.852,0,0,1-.64-1.021c.169-1.036.337-2.072.512-3.107a.22.22,0,0,0-.067-.222q-1.054-1.074-2.1-2.152a1.845,1.845,0,0,1-.152-.168.853.853,0,0,1,.563-1.367c.137-.019.272-.042.409-.062.857-.131,1.715-.263,2.573-.39a.226.226,0,0,0,.2-.145c.414-.9.839-1.788,1.246-2.688A1.043,1.043,0,0,1,6564.222-4546.539Z" transform="translate(-6558.382 4546.539)" fill="#ffdb12"/>
</svg>
