<svg xmlns="http://www.w3.org/2000/svg" width="19.127" height="16.7" viewBox="0 0 19.127 16.7">
  <g id="Group_857" data-name="Group 857" transform="translate(4224.633 -2685.55)">
    <g id="Group_764" data-name="Group 764" transform="translate(-4224.633 2685.55)">
      <path id="Path_687" data-name="Path 687" d="M-3972.544,2918.25h-2.6a1.291,1.291,0,0,0-1.29,1.29v1.993a1.291,1.291,0,0,0,1.29,1.29h2.6a1.291,1.291,0,0,0,1.29-1.29v-1.993A1.291,1.291,0,0,0-3972.544,2918.25Zm.352,3.283a.353.353,0,0,1-.352.352h-2.6a.353.353,0,0,1-.352-.352v-1.993a.353.353,0,0,1,.352-.352h2.6a.353.353,0,0,1,.352.352Z" transform="translate(3986.133 -2909.156)" fill="#000"/>
      <path id="Path_688" data-name="Path 688" d="M-4205.506,2691.021a.435.435,0,0,0-.062-.23l-2.845-5a.471.471,0,0,0-.407-.238h-12.5a.463.463,0,0,0-.406.238l-2.841,5a.474.474,0,0,0-.062.23,2.744,2.744,0,0,0,1.642,2.509v8.25a.47.47,0,0,0,.469.469h14.9a.47.47,0,0,0,.469-.469v-8.192a.206.206,0,0,0,0-.051A2.751,2.751,0,0,0-4205.506,2691.021Zm-15.543-4.53h11.955l2.224,3.912h-16.4Zm10.028,4.846a1.8,1.8,0,0,1-1.774,1.485,1.8,1.8,0,0,1-1.774-1.485Zm-4.545,0a1.8,1.8,0,0,1-1.774,1.485,1.809,1.809,0,0,1-1.778-1.485Zm-8.1,0h3.553a1.806,1.806,0,0,1-1.778,1.485A1.8,1.8,0,0,1-4223.664,2691.338Zm6.91,9.974h-2.7v-5.061a.668.668,0,0,1,.668-.668h1.364a.668.668,0,0,1,.668.668v5.061Zm8.665,0h-7.727v-5.061a1.609,1.609,0,0,0-1.606-1.606h-1.364a1.609,1.609,0,0,0-1.606,1.606v5.065h-1.661v-7.555c.055,0,.109,0,.164,0a2.74,2.74,0,0,0,2.274-1.211,2.741,2.741,0,0,0,2.275,1.211,2.746,2.746,0,0,0,2.274-1.211,2.738,2.738,0,0,0,2.271,1.211,2.734,2.734,0,0,0,2.271-1.211,2.74,2.74,0,0,0,2.274,1.211c.055,0,.105,0,.16,0v7.551Zm-.16-8.485a1.8,1.8,0,0,1-1.774-1.485h3.553A1.812,1.812,0,0,1-4208.25,2692.827Z" transform="translate(4224.633 -2685.55)" fill="#000"/>
    </g>
  </g>
</svg>
