<svg xmlns="http://www.w3.org/2000/svg" width="60.898" height="60.598" viewBox="0 0 60.898 60.598">
  <g id="Group_851" data-name="Group 851" transform="translate(5518.728 816.919)">
    <path id="Path_739" data-name="Path 739" d="M-5487.459-763.507a1.7,1.7,0,0,1-1.193,1.475,1.646,1.646,0,0,1-.366.039,2.27,2.27,0,0,1-1.346-.457q-.826-.653-1.659-1.3c-1.873-1.463-3.81-2.975-5.611-4.6a106.014,106.014,0,0,1-14.106-15.2,35.327,35.327,0,0,1-5.947-10.826,28.084,28.084,0,0,1-.648-2.878c-.079-.421-.161-.856-.25-1.278l-.142-.674.3-.07a7.767,7.767,0,0,1,2.417-5.282c.6-.589,1.206-1.2,1.791-1.79.808-.816,1.643-1.659,2.491-2.468a5.961,5.961,0,0,1,4.129-1.664,5.711,5.711,0,0,1,4.229,1.855,1.931,1.931,0,0,1,.456,1.642,1.91,1.91,0,0,1-1.241,1.181,1.177,1.177,0,0,1-.33.046,2.02,2.02,0,0,1-1.2-.466,3.184,3.184,0,0,0-1.987-.871,2.92,2.92,0,0,0-2.017,1.008q-.806.8-1.609,1.612c-.782.785-1.591,1.6-2.391,2.391a4.572,4.572,0,0,0-1.34,3.791c.235,3.226,1.614,6.024,3.613,9.233a79.8,79.8,0,0,0,10.721,13.071,99.758,99.758,0,0,0,12.406,10.906A2.145,2.145,0,0,1-5487.459-763.507Zm-16.1-40.582a1.693,1.693,0,0,0,.474,1.226,1.64,1.64,0,0,0,1.181.48h.015a1.712,1.712,0,0,0,1.2-.521,1.684,1.684,0,0,0,.484-1.193,1.752,1.752,0,0,0-1.706-1.665h-.036A1.668,1.668,0,0,0-5503.559-804.089Zm19.015-3.721h.035a1.8,1.8,0,0,0,1.707-1.659,1.672,1.672,0,0,0-.473-1.2,1.708,1.708,0,0,0-1.2-.545h-.025a1.761,1.761,0,0,0-1.717,1.657A1.8,1.8,0,0,0-5484.544-807.81Zm26.293,2.838a15.577,15.577,0,0,0-5.527-8.656,15.5,15.5,0,0,0-9.539-3.292,16.038,16.038,0,0,0-2.7.231,14.993,14.993,0,0,0-6.406,2.733,1.658,1.658,0,0,0-.53,2.349,1.657,1.657,0,0,0,1.4.738,1.989,1.989,0,0,0,.984-.27c.164-.094.31-.194.452-.292.082-.057.165-.114.25-.167a11.95,11.95,0,0,1,6.454-1.947,12.279,12.279,0,0,1,2.071.18,12.268,12.268,0,0,1,10.248,11.945c-.062.356-.117.716-.17,1.064a19.749,19.749,0,0,1-.447,2.317,12.048,12.048,0,0,1-11.625,8.724,12.49,12.49,0,0,1-1.849-.139,12.237,12.237,0,0,1-9.993-9.532,12.545,12.545,0,0,1,.278-5.986,2.107,2.107,0,0,0-.08-1.652,1.506,1.506,0,0,0-.927-.727,1.989,1.989,0,0,0-.554-.083c-.466,0-1.306.2-1.7,1.531a15.3,15.3,0,0,0-.39,7.325,15.612,15.612,0,0,0,5.508,9.174,15.622,15.622,0,0,0,9.759,3.451,15.44,15.44,0,0,0,2.417-.191,15.528,15.528,0,0,0,10.436-6.753A15.331,15.331,0,0,0-5458.25-804.971Zm-8.355,33.169c-2.05-1.619-4.252-3.327-6.929-5.378a6.025,6.025,0,0,0-3.677-1.292A6.087,6.087,0,0,0-5481-777.1q-.312.247-.622.5c-.229.184-.457.368-.687.549a2.827,2.827,0,0,1-1.748.675,2.721,2.721,0,0,1-1.908-.885c-4.31-4.3-8.509-8.5-12.479-12.481a2.494,2.494,0,0,1-.209-3.509c.159-.206.321-.409.483-.613.274-.345.558-.7.826-1.069a6.065,6.065,0,0,0-.721-7.926,1.686,1.686,0,0,0-1.222-.549,1.686,1.686,0,0,0-1.083.405,1.658,1.658,0,0,0-.307,2.258c.115.178.238.334.357.486.063.081.127.161.188.244a2.463,2.463,0,0,1-.017,3.174c-.21.278-.433.559-.648.831-.166.21-.332.419-.5.631a5.93,5.93,0,0,0,.476,8.075c4.409,4.425,8.507,8.522,12.528,12.526a5.965,5.965,0,0,0,4.214,1.794,6.08,6.08,0,0,0,3.772-1.348q.374-.294.747-.592l.569-.451a2.9,2.9,0,0,1,1.774-.719,2.849,2.849,0,0,1,1.724.684c2.041,1.579,4.206,3.263,6.815,5.3a2.7,2.7,0,0,1,1.1,1.931,2.69,2.69,0,0,1-.842,2.053q-.412.417-.821.837c-1.108,1.132-2.253,2.3-3.433,3.38a4.946,4.946,0,0,1-1.851,1.037,4.6,4.6,0,0,1-1.343.186,11.213,11.213,0,0,1-2.568-.392,25.173,25.173,0,0,1-6.146-2.606,2.141,2.141,0,0,0-1.033-.29,1.607,1.607,0,0,0-1.427.869,1.59,1.59,0,0,0-.16,1.235,1.945,1.945,0,0,0,1.02,1.148l.105.057c.813.442,1.655.9,2.515,1.307a18.754,18.754,0,0,0,7.491,2.04h.127a7.817,7.817,0,0,0,5.912-2.4c.839-.864,1.71-1.73,2.552-2.567q.7-.693,1.392-1.388a6.144,6.144,0,0,0,1.9-4.709A6.105,6.105,0,0,0-5466.605-771.8Z" transform="translate(0 0)" fill="#fff"/>
    <path id="Path_740" data-name="Path 740" d="M-5208.87-737.724c-.981.8-1.928,1.644-2.968,2.355a3.952,3.952,0,0,0-1.71,4.045.867.867,0,0,0,.86.891q2.765.038,5.53,0a.868.868,0,0,0,.861-.944.93.93,0,0,0-.917-.97c-.476-.024-.953-.006-1.429-.006h-2.831c-.16-.6.174-.887.515-1.161q1.694-1.364,3.4-2.717a3.057,3.057,0,0,0,1.271-2.627c-.012-.331,0-.663,0-.994a3.028,3.028,0,0,0-3.046-3.09c-.435-.008-.87-.009-1.3.007a3.081,3.081,0,0,0-2.9,2.734c-.067.691.237,1.2.773,1.3.618.11.983-.231,1.207-.953.112-.364.358-.9.631-.961a7.644,7.644,0,0,1,2.055-.031c.158.01.338.234.445.4A2.416,2.416,0,0,1-5208.87-737.724Zm8.8-3.687c.381-.909-.126-1.691-.994-1.485a1.408,1.408,0,0,0-.8.739c-1.028,2.3-2.01,4.628-3,6.948-.436,1.022-.019,1.647,1.093,1.654.95.005,1.9,0,2.97,0,0,.762-.021,1.46.006,2.157a.9.9,0,0,0,.962.979.949.949,0,0,0,.991-1.029c.013-.352,0-.7,0-1.057,0-1.006,0-1.006,1.006-1.05a1.037,1.037,0,0,0,1.105-.948,1.032,1.032,0,0,0-1.062-1.058c-.322-.025-.648,0-1.051,0,0-.415.012-.741,0-1.066a1.056,1.056,0,0,0-.949-1.05,1,1,0,0,0-1,.98c-.035.347-.043.7-.066,1.1h-1.646c.093-.264.155-.474.24-.674C-5201.538-737.989-5200.794-739.7-5200.073-741.411Z" transform="translate(-267.127 -64.759)" fill="#e75110"/>
  </g>
</svg>
