<svg xmlns="http://www.w3.org/2000/svg" width="44.502" height="44.509" viewBox="0 0 44.502 44.509">
  <path id="Path_499" data-name="Path 499" d="M3172.79,6196.513v1.114c-.144,1.116-.238,2.242-.441,3.348a21.709,21.709,0,0,1-7.478,12.921c-.843.72-1.78,1.334-2.691,1.97-.546.382-1.03.323-1.323-.1-.311-.446-.176-.938.4-1.3a20.343,20.343,0,0,0,6.929-7.024,19.612,19.612,0,0,0,2.5-14.138c-1.672-8.312-6.675-13.789-14.8-16.147a20.53,20.53,0,1,0,1.351,39.208c.862-.3,1.31-.189,1.509.364s-.08.925-.943,1.225a21.918,21.918,0,0,1-6.421,1.21,3.262,3.262,0,0,0-.435.073h-.892c-1.029-.112-2.063-.195-3.088-.344a22.224,22.224,0,1,1,20.953-35.726,21.949,21.949,0,0,1,4.771,12.637C3172.712,6196.043,3172.759,6196.278,3172.79,6196.513Zm-14,2.756c.74-3.484,1.253-5.908,2-9.484a3.626,3.626,0,0,0,.019-1.359,1.71,1.71,0,0,0-2.228-1.363c-.6.183-1.184.409-1.748.628l-.344.133-4.866,1.873-2.68,1.032a.782.782,0,1,0,.562,1.459l2.68-1.032,4.865-1.873.349-.136c.562-.218,1.093-.424,1.638-.59a.214.214,0,0,1,.157,0,.205.205,0,0,1,.076.143,2.073,2.073,0,0,1-.011.762c-.75,3.575-1.264,6-2,9.48a.783.783,0,0,0,.6.928.814.814,0,0,0,.163.017A.782.782,0,0,0,3158.793,6199.269Zm-13.811,1.605c-.069.93-.134,1.875-.2,2.789l-.072,1.045c-.024.35-.051.7-.077,1.058l-.036.486a.782.782,0,0,0,.7.835,1.9,1.9,0,0,0,1.578-.588l2.281-2.192,2.989,2.2.49.364c.382.286.777.582,1.183.86a5.1,5.1,0,0,0,.695.385c.085.042.17.083.254.127a.779.779,0,0,0,.363.089h.461a.789.789,0,0,0,.261-.044,2.282,2.282,0,0,0,1.417-1.863l1.022-4.81a.781.781,0,1,0-1.529-.325l-1.022,4.81c-.1.448-.2.6-.311.67h-.112c-.04-.021-.079-.039-.119-.059a3.854,3.854,0,0,1-.492-.268c-.381-.262-.764-.548-1.134-.825l-.5-.371-3.514-2.586a.783.783,0,0,0-.99.051l-.067.061c-.056.05-.109.1-.161.148l-2.078,2,.007-.1.072-1.046c.058-.851.118-1.729.182-2.594q2.9-2.627,5.809-5.249l1.968-1.777c.674-.608,1.371-1.237,2.051-1.865a1.14,1.14,0,0,0,.315-.566c0-.013.007-.026.007-.029a.782.782,0,0,0-.535-1.042.268.268,0,0,1-.033-.012,1.083,1.083,0,0,0-.724-.044,3.656,3.656,0,0,0-.822.376q-2.629,1.65-5.256,3.3-3.348,2.106-6.7,4.209c-1.185-.364-2.384-.739-3.546-1.1l-1.388-.434a2.087,2.087,0,0,1-.206-.074,3.473,3.473,0,0,1,.583-.269l8.849-3.407a.782.782,0,0,0-.562-1.459l-8.849,3.407a3.011,3.011,0,0,0-1.64,1.193.786.786,0,0,0-.112.4v.358a.783.783,0,0,0,.145.454,2.455,2.455,0,0,0,1.326.884l1.386.434c1.216.381,2.474.774,3.715,1.154a1.3,1.3,0,0,0,1.035-.16q3.4-2.131,6.794-4.268l.76-.478q-2.76,2.492-5.518,4.987A1.207,1.207,0,0,0,3144.983,6200.875Z" transform="translate(-3128.288 -6174.731)" fill="#7c90a7"/>
</svg>
