<svg xmlns="http://www.w3.org/2000/svg" width="44.501" height="44.509" viewBox="0 0 44.501 44.509">
  <path id="Path_497" data-name="Path 497" d="M2692.483,6215.87c-1.03-.113-2.063-.2-3.088-.344a22.223,22.223,0,1,1,20.953-35.726,21.955,21.955,0,0,1,4.771,12.637c.013.236.06.471.091.706v1.115c-.144,1.116-.238,2.242-.441,3.347a21.707,21.707,0,0,1-7.478,12.922c-.843.72-1.78,1.333-2.691,1.97-.546.381-1.03.324-1.323-.1-.311-.447-.176-.939.4-1.3a20.34,20.34,0,0,0,6.929-7.024,19.611,19.611,0,0,0,2.5-14.138c-1.671-8.312-6.675-13.79-14.8-16.147a20.53,20.53,0,1,0,1.351,39.208c.862-.3,1.31-.19,1.509.364s-.08.924-.943,1.224a21.9,21.9,0,0,1-6.421,1.21,3.212,3.212,0,0,0-.436.073Zm9.042-26.257c-.15.873-.116,1.776-.24,2.655a11.612,11.612,0,0,1-3.939,7.563,12.538,12.538,0,0,1-8.1,2.9c-.654.016-.995.289-.986.792s.367.788,1.016.753a20.832,20.832,0,0,0,2.543-.229,12.987,12.987,0,0,0,8.4-4.982,15.043,15.043,0,0,0,2.825-8.746.971.971,0,0,1,.426-.828c.847-.633,1.675-1.29,2.5-1.945a.768.768,0,0,0,.268-.944.747.747,0,0,0-.853-.475c-.307.035-.613.084-.974.134.105-.224.179-.392.262-.555a.957.957,0,0,0-.09-1.229c-.383-.375-.8-.264-1.231-.064a15.1,15.1,0,0,1-1.7.687.884.884,0,0,1-.686-.124,5.624,5.624,0,0,0-8.92,5.394.783.783,0,0,0,.845.71.744.744,0,0,0,.7-.842c-.01-.223-.022-.444-.029-.667a3.79,3.79,0,0,1,2.163-3.665,3.694,3.694,0,0,1,4.23.323,1.773,1.773,0,0,0,1.966.455c.026-.012.078.032.127.054-.708.734-.656,1.129.088,1.593A5.156,5.156,0,0,0,2701.525,6189.612Zm-15.99,7.208c.529-.066,1.144-.033,1.255-.746.117-.746-.495-.849-1-1.02-.053-.018-.106-.035-.156-.057a3.946,3.946,0,0,1-2.237-2.551,2.962,2.962,0,0,0,.938.1,1.288,1.288,0,0,0,.771-.488c.107-.183-.047-.536-.127-.8-.033-.108-.174-.188-.275-.269a3.932,3.932,0,0,1-1.424-2.564,12.229,12.229,0,0,1-.013-1.652c.238.205.323.271.4.346a14.707,14.707,0,0,0,6.142,3.457c.6.175,1.05.01,1.2-.447s-.124-.844-.727-1.054c-.646-.226-1.3-.435-1.929-.7a12.536,12.536,0,0,1-4.373-3.183c-.644-.708-1.3-.645-1.718.214a6.362,6.362,0,0,0-.562,1.837,5.667,5.667,0,0,0,.583,3.2,1.225,1.225,0,0,0-.614,1.387,5.494,5.494,0,0,0,1.263,3.032c.3.364.7.645.436,1.225-.067.145.048.4.123.581a5.485,5.485,0,0,0,2.964,3c-.154.077-.248.132-.348.173a9.375,9.375,0,0,1-4.356.661.819.819,0,0,0-.914.575.827.827,0,0,0,.4,1.005,13.38,13.38,0,0,0,4.991,1.937.778.778,0,0,0,.364-1.508,4.8,4.8,0,0,0-.485-.116c-.453-.12-.9-.243-1.5-.405.834-.275,1.534-.449,2.182-.737a14.836,14.836,0,0,0,1.975-1.1.756.756,0,0,0,.343-1.013,1.442,1.442,0,0,0-.818-.527,4.8,4.8,0,0,1-2.887-1.723A.667.667,0,0,1,2685.535,6196.82Z" transform="translate(-2670.709 -6171.361)" fill="#7c90a7"/>
</svg>
