<svg xmlns="http://www.w3.org/2000/svg" width="21.997" height="22" viewBox="0 0 21.997 22">
  <path id="Path_684" data-name="Path 684" d="M1390.224,2011.379a11,11,0,1,1-11.012-10.995A11.026,11.026,0,0,1,1390.224,2011.379Zm-13.96,1.837a4.971,4.971,0,0,1-2.044-3.7,4.831,4.831,0,0,1,1.5-3.93,4.993,4.993,0,0,1,6.955-.047,4.81,4.81,0,0,1,1.557,3.375,4.991,4.991,0,0,1-2.052,4.313,7.935,7.935,0,0,1,2.811,1.5,5.745,5.745,0,0,1,1.774,2.6,9.6,9.6,0,1,0-15.086-.025A6.686,6.686,0,0,1,1376.265,2013.217Zm2.96,7.8a9.534,9.534,0,0,0,6.258-2.345.332.332,0,0,0,.106-.271,7.028,7.028,0,0,0-.441-1.335,5.059,5.059,0,0,0-2.8-2.321,8.637,8.637,0,0,0-4.135-.507,7.243,7.243,0,0,0-3.368,1.165,4.3,4.3,0,0,0-1.978,2.939.322.322,0,0,0,.109.346A9.616,9.616,0,0,0,1379.225,2021.012Zm-.007-8.218a3.632,3.632,0,1,0-3.627-3.642A3.624,3.624,0,0,0,1379.218,2012.794Z" transform="translate(-1368.228 -2000.385)" fill="#fff"/>
</svg>
