<svg xmlns="http://www.w3.org/2000/svg" width="64.454" height="61.8" viewBox="0 0 64.454 61.8">
  <g id="Group_853" data-name="Group 853" transform="translate(4749.106 801.131)">
    <path id="Path_741" data-name="Path 741" d="M-4686.365-773.356c-1.936-1.461-3.861-2.935-5.811-4.378a.824.824,0,0,1-.375-1.082c.766-2.382,1.485-4.779,2.208-7.175a3.535,3.535,0,0,0-3.472-4.713c-2.531-.03-5.062-.1-7.594-.12-.456,0-.611-.192-.741-.576-.8-2.37-1.627-4.734-2.443-7.1a3.532,3.532,0,0,0-5.627-1.866c-2.061,1.431-4.119,2.865-6.162,4.321a.712.712,0,0,1-.985.007c-2.042-1.458-4.1-2.89-6.16-4.324a3.538,3.538,0,0,0-5.634,1.853c-.825,2.385-1.659,4.767-2.464,7.159a.643.643,0,0,1-.713.522c-2.51.028-5.023.179-7.53.1a3.61,3.61,0,0,0-3.533,4.791c.769,2.4,1.467,4.829,2.222,7.236a.677.677,0,0,1-.292.887c-1.98,1.471-3.94,2.97-5.911,4.454-2.295,1.728-2.3,4.361-.006,6.092,1.935,1.461,3.862,2.934,5.812,4.377a.823.823,0,0,1,.372,1.083c-.767,2.382-1.485,4.779-2.208,7.174a3.538,3.538,0,0,0,3.473,4.714c2.532.029,5.063.094,7.594.122a.638.638,0,0,1,.715.516c.8,2.392,1.645,4.772,2.466,7.158a3.535,3.535,0,0,0,5.629,1.863q3.119-2.161,6.215-4.356a.637.637,0,0,1,.879,0c2.079,1.478,4.155,2.962,6.277,4.377a12.538,12.538,0,0,0,2.091.913l.074-.173a3.53,3.53,0,0,0,3.39-2.553c.832-2.4,1.669-4.808,2.479-7.22a.64.64,0,0,1,.71-.523c2.511-.026,5.021-.094,7.531-.121a3.534,3.534,0,0,0,3.524-4.764c-.732-2.415-1.46-4.831-2.213-7.239a.676.676,0,0,1,.287-.888c1.983-1.468,3.941-2.968,5.914-4.451C-4684.082-768.989-4684.075-771.627-4686.365-773.356Zm-1.894,3.665-6.813,5.15a1.736,1.736,0,0,0-.774,2.392q1.245,4.072,2.492,8.144c.255.833.117,1.028-.737,1.041l-8.734.134a1.632,1.632,0,0,0-1.769,1.305q-1.436,4.143-2.867,8.288c-.271.781-.454.844-1.118.38q-3.578-2.5-7.151-5a1.663,1.663,0,0,0-2.3,0q-3.551,2.483-7.1,4.969c-.723.505-.9.444-1.2-.406q-1.42-4.115-2.836-8.232a1.654,1.654,0,0,0-1.834-1.3q-4.367-.063-8.733-.135c-.771-.013-.916-.22-.685-.981q1.273-4.2,2.549-8.39c.067-.22.111-.448.135-.549a1.667,1.667,0,0,0-.754-1.505q-3.514-2.643-7.017-5.3c-.693-.524-.7-.715-.021-1.226q3.407-2.575,6.815-5.148a1.759,1.759,0,0,0,.789-2.444q-1.242-4.073-2.491-8.145c-.245-.8-.106-.995.715-1.007q4.334-.067,8.67-.134a1.656,1.656,0,0,0,1.87-1.339q1.423-4.114,2.846-8.229c.282-.813.468-.875,1.159-.391q3.576,2.5,7.15,5a1.641,1.641,0,0,0,2.248,0q3.551-2.481,7.1-4.966c.758-.53.928-.473,1.235.418q1.408,4.086,2.815,8.172a1.642,1.642,0,0,0,1.811,1.334l8.733.136c.82.013.954.2.709,1.011q-1.266,4.165-2.532,8.33a1.6,1.6,0,0,0,.685,2.139q3.452,2.621,6.913,5.228C-4687.55-770.4-4687.547-770.23-4688.259-769.691Zm-28.6-18.494a17.854,17.854,0,0,0-17.887,17.871,17.852,17.852,0,0,0,17.883,17.875,17.859,17.859,0,0,0,17.857-17.84A17.857,17.857,0,0,0-4716.861-788.186Zm.027,32.693a14.832,14.832,0,0,1-14.861-14.933,14.848,14.848,0,0,1,14.772-14.706,14.838,14.838,0,0,1,14.861,14.807A14.839,14.839,0,0,1-4716.834-755.493Z" fill="#fff"/>
    <path id="Path_742" data-name="Path 742" d="M-4545.219-605.685a2.18,2.18,0,0,1-.544.965q-4.406,4.449-8.848,8.863a1.779,1.779,0,0,1-2.731,0q-2.16-2.133-4.292-4.294a1.784,1.784,0,0,1-.07-2.549,1.786,1.786,0,0,1,2.593.065c1.02,1.006,2.023,2.028,3.093,3.1l3.716-3.72c1.341-1.342,2.678-2.689,4.028-4.022a1.784,1.784,0,0,1,2.2-.341A1.714,1.714,0,0,1-4545.219-605.685Z" transform="translate(-163.195 -168.762)" fill="#e75110"/>
  </g>
</svg>
